Amstelvar-Italic-opsz8-wght900-wdth50.ufo
<glyph name="exclam" format="2">
  <advance width="789"/>
  <unicode hex="0021"/>
  <outline>
    <contour>
      <point x="75.0" y="194.0" type="qcurve" smooth="yes"/>
      <point x="75.0" y="278.0"/>
      <point x="200.0" y="407.0"/>
      <point x="300.0" y="407.0" type="qcurve" smooth="yes"/>
      <point x="400.0" y="407.0"/>
      <point x="527.0" y="278.0"/>
      <point x="527.0" y="194.0" type="qcurve" smooth="yes"/>
      <point x="527.0" y="109.0"/>
      <point x="400.0" y="-18.0"/>
      <point x="300.0" y="-18.0" type="qcurve" smooth="yes"/>
      <point x="200.0" y="-18.0"/>
      <point x="75.0" y="109.0"/>
    </contour>
    <contour>
      <point x="253" y="1281" type="line" smooth="yes"/>
      <point x="259" y="1429"/>
      <point x="430.0" y="1564.0"/>
      <point x="532.0" y="1564.0" type="qcurve" smooth="yes"/>
      <point x="635.0" y="1565.0"/>
      <point x="782.0" y="1428.0"/>
      <point x="741" y="1287" type="qcurve" smooth="yes"/>
      <point x="688.0" y="1108.0" type="line"/>
      <point x="537.0" y="800.0" type="line"/>
      <point x="432.0" y="534.0" type="line"/>
      <point x="278.0" y="534.0" type="line"/>
      <point x="276.0" y="800.0" type="line"/>
      <point x="247.0" y="1108.0" type="line"/>
    </contour>
  </outline>
</glyph>
<glyph name="percent" format="2">
  <advance width="1950"/>
  <unicode hex="0025"/>
  <outline>
    <contour>
      <point x="115" y="1071" type="qcurve" smooth="yes"/>
      <point x="144" y="1274"/>
      <point x="410" y="1521.0"/>
      <point x="581" y="1521.0" type="qcurve" smooth="yes"/>
      <point x="753" y="1521.0"/>
      <point x="916" y="1242"/>
      <point x="884" y="1023" type="qcurve" smooth="yes"/>
      <point x="854" y="817"/>
      <point x="588" y="562.0"/>
      <point x="416" y="562.0" type="qcurve" smooth="yes"/>
      <point x="244" y="562.0"/>
      <point x="82" y="847"/>
    </contour>
    <contour>
      <point x="442" y="1050.0" type="qcurve" smooth="yes"/>
      <point x="402" y="820.0"/>
      <point x="399" y="695.0"/>
      <point x="435" y="695.0" type="qcurve" smooth="yes"/>
      <point x="474" y="695.0"/>
      <point x="515" y="825.0"/>
      <point x="554" y="1046.0" type="qcurve" smooth="yes"/>
      <point x="593" y="1267.0"/>
      <point x="593" y="1381.0"/>
      <point x="557" y="1381.0" type="qcurve" smooth="yes"/>
      <point x="518" y="1381.0"/>
      <point x="483" y="1280.0"/>
    </contour>
    <contour>
      <point x="531" y="50.0" type="line"/>
      <point x="1289" y="1515.0" type="line"/>
      <point x="1424" y="1448.0" type="line"/>
      <point x="664" y="-22.0" type="line"/>
    </contour>
    <contour>
      <point x="1097" y="496" type="qcurve" smooth="yes"/>
      <point x="1127" y="700"/>
      <point x="1389" y="931.0"/>
      <point x="1560" y="931.0" type="qcurve" smooth="yes"/>
      <point x="1731" y="931.0"/>
      <point x="1897" y="668"/>
      <point x="1866" y="448" type="qcurve" smooth="yes"/>
      <point x="1833" y="225"/>
      <point x="1569" y="-27.0"/>
      <point x="1397" y="-27.0" type="qcurve" smooth="yes"/>
      <point x="1226" y="-27.0"/>
      <point x="1062" y="256"/>
    </contour>
    <contour>
      <point x="1425" y="480.0" type="qcurve" smooth="yes"/>
      <point x="1385" y="250.0"/>
      <point x="1378" y="105.0"/>
      <point x="1415" y="105.0" type="qcurve" smooth="yes"/>
      <point x="1453" y="105.0"/>
      <point x="1497" y="251.0"/>
      <point x="1536" y="474.0" type="qcurve" smooth="yes"/>
      <point x="1575" y="697.0"/>
      <point x="1572" y="792.0"/>
      <point x="1535" y="792.0" type="qcurve" smooth="yes"/>
      <point x="1497" y="792.0"/>
      <point x="1464" y="710.0"/>
    </contour>
  </outline>
</glyph>
<glyph name="quotesingle" format="2">
  <advance width="527"/>
  <unicode hex="0027"/>
  <outline>
    <contour>
      <point x="248.0" y="914.0" type="line"/>
      <point x="248.0" y="1373.0" type="line" smooth="yes"/>
      <point x="249.0" y="1464.0"/>
      <point x="371.0" y="1562.0"/>
      <point x="459.0" y="1562.0" type="qcurve" smooth="yes"/>
      <point x="553.0" y="1562.0"/>
      <point x="634.0" y="1434.0"/>
      <point x="593.0" y="1358.0" type="qcurve" smooth="yes"/>
      <point x="363.0" y="904.0" type="line"/>
    </contour>
  </outline>
</glyph>
<glyph name="parenleft" format="2">
  <advance width="835"/>
  <unicode hex="0028"/>
  <outline>
    <contour>
      <point x="87.0" y="547.0" type="qcurve" smooth="yes"/>
      <point x="141.0" y="864.0"/>
      <point x="628.0" y="1416.0"/>
      <point x="875.0" y="1517.0" type="qcurve"/>
      <point x="1000.0" y="1399.0" type="line"/>
      <point x="903.0" y="1305.0"/>
      <point x="628.0" y="821.0"/>
      <point x="575.0" y="548.0" type="qcurve" smooth="yes"/>
      <point x="521.0" y="272.0"/>
      <point x="582.0" y="-177.0"/>
      <point x="675.0" y="-339.0" type="qcurve"/>
      <point x="524.0" y="-461.0" type="line"/>
      <point x="266.0" y="-299.0"/>
      <point x="32.0" y="228.0"/>
    </contour>
  </outline>
</glyph>
<glyph name="parenright" format="2">
  <advance width="835"/>
  <unicode hex="0029"/>
  <outline>
    <contour>
      <point x="743.0" y="505.0" type="qcurve" smooth="yes"/>
      <point x="691.0" y="206.0"/>
      <point x="204.0" y="-366.0"/>
      <point x="-45.0" y="-467.0" type="qcurve"/>
      <point x="-172.0" y="-349.0" type="line"/>
      <point x="-79.0" y="-245.0"/>
      <point x="200.0" y="229.0"/>
      <point x="255.0" y="504.0" type="qcurve" smooth="yes"/>
      <point x="309.0" y="778.0"/>
      <point x="256.0" y="1235.0"/>
      <point x="157.0" y="1391.0" type="qcurve"/>
      <point x="306.0" y="1513.0" type="line"/>
      <point x="564.0" y="1351.0"/>
      <point x="800.0" y="844.0"/>
    </contour>
  </outline>
</glyph>
<glyph name="asterisk" format="2">
  <advance width="929"/>
  <unicode hex="002A"/>
  <outline>
    <contour>
      <point x="537.0" y="663.0" type="qcurve" smooth="yes"/>
      <point x="477.0" y="663.0"/>
      <point x="410.0" y="740.0"/>
      <point x="423.0" y="799.0" type="qcurve" smooth="yes"/>
      <point x="512" y="1044" type="line"/>
      <point x="507" y="1048" type="line"/>
      <point x="332.0" y="852.0" type="line" smooth="yes"/>
      <point x="293.0" y="817.0"/>
      <point x="193.0" y="827.0"/>
      <point x="162.0" y="883.0" type="qcurve" smooth="yes"/>
      <point x="130.0" y="938.0"/>
      <point x="174.0" y="1034.0"/>
      <point x="224.0" y="1052.0" type="qcurve" smooth="yes"/>
      <point x="480" y="1100" type="line"/>
      <point x="480" y="1104" type="line"/>
      <point x="224.0" y="1151.0" type="line" smooth="yes"/>
      <point x="175.0" y="1168.0"/>
      <point x="130.0" y="1265.0"/>
      <point x="162.0" y="1321.0" type="qcurve" smooth="yes"/>
      <point x="193.0" y="1375.0"/>
      <point x="294.0" y="1389.0"/>
      <point x="332.0" y="1354.0" type="qcurve" smooth="yes"/>
      <point x="507" y="1155" type="line"/>
      <point x="511" y="1159" type="line"/>
      <point x="423.0" y="1404.0" type="line" smooth="yes"/>
      <point x="410.0" y="1465.0"/>
      <point x="480.0" y="1539.0"/>
      <point x="537.0" y="1539.0" type="qcurve" smooth="yes"/>
      <point x="598.0" y="1539.0"/>
      <point x="666.0" y="1463.0"/>
      <point x="652.0" y="1404.0" type="qcurve" smooth="yes"/>
      <point x="564" y="1160" type="line"/>
      <point x="569" y="1156" type="line"/>
      <point x="743.0" y="1354.0" type="line" smooth="yes"/>
      <point x="783.0" y="1389.0"/>
      <point x="884.0" y="1375.0"/>
      <point x="913.0" y="1321.0" type="qcurve" smooth="yes"/>
      <point x="946.0" y="1265.0"/>
      <point x="901.0" y="1168.0"/>
      <point x="852.0" y="1151.0" type="qcurve" smooth="yes"/>
      <point x="595" y="1104" type="line"/>
      <point x="596" y="1100" type="line"/>
      <point x="852.0" y="1053.0" type="line" smooth="yes"/>
      <point x="900.0" y="1034.0"/>
      <point x="946.0" y="938.0"/>
      <point x="913.0" y="883.0" type="qcurve" smooth="yes"/>
      <point x="884.0" y="827.0"/>
      <point x="783.0" y="815.0"/>
      <point x="743.0" y="851.0" type="qcurve" smooth="yes"/>
      <point x="570" y="1048" type="line"/>
      <point x="565" y="1044" type="line"/>
      <point x="654.0" y="799.0" type="line" smooth="yes"/>
      <point x="668.0" y="740.0"/>
      <point x="602.0" y="663.0"/>
    </contour>
  </outline>
</glyph>
<glyph name="plus" format="2">
  <advance width="889"/>
  <unicode hex="002B"/>
  <outline>
    <contour>
      <point x="144.0" y="496.0" type="line"/>
      <point x="144.0" y="769.0" type="line"/>
      <point x="904.0" y="769.0" type="line"/>
      <point x="904.0" y="496.0" type="line"/>
    </contour>
    <contour>
      <point x="384.0" y="192.0" type="line"/>
      <point x="384.0" y="1072.0" type="line"/>
      <point x="664.0" y="1072.0" type="line"/>
      <point x="664.0" y="192.0" type="line"/>
    </contour>
  </outline>
</glyph>
<glyph name="comma" format="2">
  <advance width="566"/>
  <unicode hex="002C"/>
  <outline>
    <contour>
      <point x="-67.0" y="-224.0" type="line"/>
      <point x="10.0" y="-178.0"/>
      <point x="138.0" y="-62.0"/>
      <point x="164.0" y="2.0" type="qcurve"/>
      <point x="51.0" y="2.0"/>
      <point x="-68.0" y="118.0"/>
      <point x="-68.0" y="209.0" type="qcurve" smooth="yes"/>
      <point x="-68.0" y="298.0"/>
      <point x="74.0" y="432.0"/>
      <point x="173.0" y="432.0" type="qcurve" smooth="yes"/>
      <point x="272.0" y="432.0"/>
      <point x="403.0" y="310.0"/>
      <point x="403.0" y="178.0" type="qcurve" smooth="yes"/>
      <point x="403.0" y="32.0"/>
      <point x="200.0" y="-235.0"/>
      <point x="21.0" y="-334.0" type="qcurve"/>
    </contour>
  </outline>
</glyph>
<glyph name="slash" format="2">
  <advance width="634"/>
  <unicode hex="002F"/>
  <outline>
    <contour>
      <point x="-165.0" y="-71.0" type="line"/>
      <point x="442.0" y="1587.0" type="line"/>
      <point x="756.0" y="1500.0" type="line"/>
      <point x="150.0" y="-156.0" type="line"/>
    </contour>
  </outline>
</glyph>
<glyph name="zero" format="2">
  <advance width="1247"/>
  <unicode hex="0030"/>
  <outline>
    <contour>
      <point x="50" y="870" type="qcurve" smooth="yes"/>
      <point x="129" y="1204"/>
      <point x="498" y="1539"/>
      <point x="773.0" y="1513.0" type="qcurve" smooth="yes"/>
      <point x="1033" y="1488.0"/>
      <point x="1229.0" y="1017.0"/>
      <point x="1165.0" y="693.0" type="qcurve" smooth="yes"/>
      <point x="1099" y="357"/>
      <point x="707.0" y="-32.0"/>
      <point x="427.0" y="-10.0" type="qcurve" smooth="yes"/>
      <point x="149.0" y="13.0"/>
      <point x="-38.0" y="500.0"/>
    </contour>
    <contour>
      <point x="546.0" y="777.0" type="qcurve" smooth="yes"/>
      <point x="424" y="298"/>
      <point x="408" y="190"/>
      <point x="455.0" y="179.0" type="qcurve" smooth="yes"/>
      <point x="504" y="167"/>
      <point x="539" y="267"/>
      <point x="655.0" y="728.0" type="qcurve" smooth="yes"/>
      <point x="770" y="1184"/>
      <point x="788" y="1308"/>
      <point x="740.0" y="1316.0" type="qcurve" smooth="yes"/>
      <point x="693" y="1324"/>
      <point x="660" y="1224"/>
    </contour>
  </outline>
</glyph>
<glyph name="one" format="2">
  <advance width="885"/>
  <unicode hex="0031"/>
  <outline>
    <contour>
      <point x="77.0" y="45.0" type="line"/>
      <point x="101.0" y="107.0"/>
      <point x="136.0" y="215.0"/>
      <point x="160.0" y="322.0" type="qcurve" smooth="yes"/>
      <point x="321.0" y="966.0" type="line"/>
      <point x="356.0" y="1117.0" type="line"/>
      <point x="84.0" y="1007.0" type="line"/>
      <point x="19.0" y="1218.0" type="line"/>
      <point x="695.0" y="1535.0" type="line"/>
      <point x="931.0" y="1394.0" type="line"/>
      <point x="913.0" y="1361.0"/>
      <point x="892" y="1262"/>
      <point x="882.0" y="1224.0" type="qcurve" smooth="yes"/>
      <point x="753.0" y="720.0" type="line"/>
      <point x="648.0" y="151.0" type="line"/>
      <point x="269.0" y="-33.0" type="line"/>
    </contour>
  </outline>
</glyph>
<glyph name="two" format="2">
  <advance width="996"/>
  <unicode hex="0032"/>
  <outline>
    <contour>
      <point x="-164" y="-8" type="qcurve"/>
      <point x="-254" y="138" type="line"/>
      <point x="-116" y="245" type="line" smooth="yes"/>
      <point x="71" y="390"/>
      <point x="405" y="881"/>
      <point x="439" y="1047" type="qcurve" smooth="yes"/>
      <point x="462" y="1159"/>
      <point x="416" y="1261"/>
      <point x="352" y="1261" type="qcurve" smooth="yes"/>
      <point x="285" y="1261"/>
      <point x="167" y="1163"/>
      <point x="110" y="1089" type="qcurve"/>
      <point x="-6" y="1223" type="line"/>
      <point x="81" y="1341"/>
      <point x="329" y="1530"/>
      <point x="523" y="1530" type="qcurve" smooth="yes"/>
      <point x="731" y="1530"/>
      <point x="978" y="1337"/>
      <point x="978" y="1144" type="qcurve" smooth="yes"/>
      <point x="978" y="905"/>
      <point x="541" y="516"/>
      <point x="239" y="356" type="qcurve"/>
      <point x="244" y="346" type="line"/>
      <point x="292" y="377"/>
      <point x="423" y="423"/>
      <point x="500" y="423" type="qcurve" smooth="yes"/>
      <point x="568" y="423"/>
      <point x="642" y="408"/>
      <point x="690" y="399" type="qcurve"/>
      <point x="747" y="494" type="line"/>
      <point x="912" y="450" type="line"/>
      <point x="733" y="-20" type="line"/>
      <point x="641" y="7"/>
      <point x="439" y="54"/>
      <point x="285" y="54" type="qcurve" smooth="yes"/>
      <point x="163" y="54"/>
      <point x="-94" y="20"/>
    </contour>
  </outline>
</glyph>
<glyph name="three" format="2">
  <advance width="1016"/>
  <unicode hex="0033"/>
  <outline>
    <contour>
      <point x="-115" y="272" type="qcurve" smooth="yes"/>
      <point x="-108" y="374"/>
      <point x="11.0" y="486.0"/>
      <point x="71" y="486" type="qcurve" smooth="yes"/>
      <point x="135" y="486" type="line"/>
      <point x="120" y="439"/>
      <point x="99" y="353"/>
      <point x="96" y="309" type="qcurve" smooth="yes"/>
      <point x="91" y="238"/>
      <point x="145" y="142"/>
      <point x="226" y="142" type="qcurve" smooth="yes"/>
      <point x="311" y="142"/>
      <point x="402" y="285"/>
      <point x="427" y="438" type="qcurve" smooth="yes"/>
      <point x="453" y="596"/>
      <point x="351" y="703"/>
      <point x="227" y="708" type="qcurve" smooth="yes"/>
      <point x="153" y="711" type="line"/>
      <point x="196" y="897" type="line"/>
      <point x="277" y="904" type="line" smooth="yes"/>
      <point x="408" y="915"/>
      <point x="535" y="1028"/>
      <point x="548" y="1122" type="qcurve" smooth="yes"/>
      <point x="561" y="1207"/>
      <point x="504" y="1282"/>
      <point x="448" y="1282" type="qcurve" smooth="yes"/>
      <point x="387" y="1282"/>
      <point x="287" y="1216"/>
      <point x="205" y="1123" type="qcurve"/>
      <point x="95" y="1259" type="line"/>
      <point x="166" y="1344"/>
      <point x="427" y="1530"/>
      <point x="638" y="1530" type="qcurve" smooth="yes"/>
      <point x="825" y="1530"/>
      <point x="1034" y="1324"/>
      <point x="1008" y="1185" type="qcurve" smooth="yes"/>
      <point x="980" y="1037"/>
      <point x="757" y="869"/>
      <point x="621" y="837" type="qcurve"/>
      <point x="619" y="830" type="line"/>
      <point x="786" y="795"/>
      <point x="962" y="574"/>
      <point x="935" y="400" type="qcurve" smooth="yes"/>
      <point x="905" y="212"/>
      <point x="576" y="-33"/>
      <point x="312" y="-32" type="qcurve"/>
      <point x="93" y="-31"/>
      <point x="-124" y="145"/>
    </contour>
  </outline>
</glyph>
<glyph name="four" format="2">
  <advance width="920"/>
  <unicode hex="0034"/>
  <outline>
    <contour>
      <point x="-120.0" y="405.0" type="line"/>
      <point x="-100.0" y="550.0" type="line"/>
      <point x="701.0" y="1542" type="line"/>
      <point x="922" y="1452" type="line"/>
      <point x="975" y="1407" type="line"/>
      <point x="760" y="513" type="line"/>
      <point x="765" y="481" type="line"/>
      <point x="712" y="255" type="line"/>
      <point x="690" y="98" type="line"/>
      <point x="336" y="-29" type="line"/>
      <point x="163" y="46" type="line"/>
      <point x="287" y="495" type="line"/>
      <point x="295" y="523" type="line"/>
      <point x="424" y="1004" type="line"/>
      <point x="107.0" y="605.0" type="line"/>
      <point x="111.0" y="595.0" type="line"/>
      <point x="576" y="587" type="line"/>
      <point x="903" y="598" type="line"/>
      <point x="870" y="406" type="line"/>
      <point x="540" y="394" type="line"/>
    </contour>
  </outline>
</glyph>
<glyph name="five" format="2">
  <advance width="1146"/>
  <unicode hex="0035"/>
  <outline>
    <contour>
      <point x="-117" y="270" type="qcurve" smooth="yes"/>
      <point x="-111" y="371"/>
      <point x="10" y="485"/>
      <point x="72" y="486" type="qcurve"/>
      <point x="135" y="486" type="line"/>
      <point x="112" y="406" type="line" smooth="yes"/>
      <point x="72" y="266"/>
      <point x="141" y="144"/>
      <point x="247" y="144" type="qcurve"/>
      <point x="363" y="143"/>
      <point x="469" y="366"/>
      <point x="480" y="550" type="qcurve" smooth="yes"/>
      <point x="489" y="701"/>
      <point x="336" y="787"/>
      <point x="181" y="729" type="qcurve" smooth="yes"/>
      <point x="146" y="712" type="line"/>
      <point x="64" y="849" type="line"/>
      <point x="219" y="1433" type="line"/>
      <point x="301" y="1500" type="line"/>
      <point x="1046" y="1500" type="line"/>
      <point x="972" y="1201" type="line"/>
      <point x="376" y="1201" type="line"/>
      <point x="366" y="1190" type="line"/>
      <point x="321" y="1021"/>
      <point x="294" y="966"/>
      <point x="272" y="931" type="qcurve"/>
      <point x="483" y="979" type="line"/>
      <point x="714" y="1001"/>
      <point x="1007" y="794"/>
      <point x="997" y="597" type="qcurve" smooth="yes"/>
      <point x="984" y="337"/>
      <point x="577" y="-33"/>
      <point x="317" y="-33" type="qcurve" smooth="yes"/>
      <point x="93" y="-33"/>
      <point x="-125" y="142"/>
    </contour>
  </outline>
</glyph>
<glyph name="eight" format="2">
  <advance width="1075"/>
  <unicode hex="0038"/>
  <outline>
    <contour>
      <point x="-101" y="339" type="qcurve" smooth="yes"/>
      <point x="-101" y="510"/>
      <point x="204" y="759"/>
      <point x="447" y="862" type="qcurve"/>
      <point x="539" y="784" type="line"/>
      <point x="415" y="704"/>
      <point x="250" y="498"/>
      <point x="250" y="358" type="qcurve" smooth="yes"/>
      <point x="250" y="268"/>
      <point x="329" y="167"/>
      <point x="394" y="167" type="qcurve" smooth="yes"/>
      <point x="455" y="167"/>
      <point x="540" y="244"/>
      <point x="540" y="326" type="qcurve" smooth="yes"/>
      <point x="540" y="421"/>
      <point x="466" y="540"/>
      <point x="332" y="685" type="qcurve" smooth="yes"/>
      <point x="219" y="807"/>
      <point x="144" y="947"/>
      <point x="147" y="1067" type="qcurve"/>
      <point x="144" y="1253"/>
      <point x="476" y="1516"/>
      <point x="692" y="1516" type="qcurve" smooth="yes"/>
      <point x="884" y="1516"/>
      <point x="1073" y="1341"/>
      <point x="1073" y="1211" type="qcurve" smooth="yes"/>
      <point x="1073" y="1083"/>
      <point x="819" y="891"/>
      <point x="599" y="816" type="qcurve"/>
      <point x="508" y="897" type="line"/>
      <point x="664" y="983"/>
      <point x="778" y="1101"/>
      <point x="781" y="1183" type="qcurve" smooth="yes"/>
      <point x="784" y="1251"/>
      <point x="732" y="1329"/>
      <point x="684" y="1329" type="qcurve" smooth="yes"/>
      <point x="636" y="1329"/>
      <point x="577" y="1267"/>
      <point x="577" y="1195" type="qcurve" smooth="yes"/>
      <point x="577" y="1119"/>
      <point x="660" y="1010"/>
      <point x="770" y="894" type="qcurve" smooth="yes"/>
      <point x="896" y="760"/>
      <point x="998" y="575"/>
      <point x="998" y="425" type="qcurve" smooth="yes"/>
      <point x="998" y="233"/>
      <point x="657" y="-11"/>
      <point x="369" y="-11" type="qcurve" smooth="yes"/>
      <point x="153" y="-11"/>
      <point x="-101" y="201"/>
    </contour>
  </outline>
</glyph>
<glyph name="nine" format="2">
  <advance width="1151"/>
  <unicode hex="0039"/>
  <outline>
    <contour>
      <point x="-8.0" y="-20.0" type="qcurve"/>
      <point x="-36.0" y="147.0" type="line"/>
      <point x="284.0" y="223.0"/>
      <point x="618.0" y="754.0"/>
      <point x="672.0" y="1099.0" type="qcurve" smooth="yes"/>
      <point x="696.0" y="1270.0"/>
      <point x="685.0" y="1388.0"/>
      <point x="686.0" y="1388.0" type="qcurve" smooth="yes"/>
      <point x="631.0" y="1388.0"/>
      <point x="582.0" y="1187.0"/>
      <point x="556.0" y="1092.0" type="qcurve" smooth="yes"/>
      <point x="536.0" y="937.0"/>
      <point x="563.0" y="845.0"/>
      <point x="553.0" y="845.0" type="qcurve" smooth="yes"/>
      <point x="574.0" y="845.0"/>
      <point x="610.0" y="868.0"/>
      <point x="626.0" y="885.0" type="qcurve"/>
      <point x="644.0" y="737.0" type="line"/>
      <point x="610.0" y="699.0"/>
      <point x="481.0" y="653.0"/>
      <point x="402.0" y="653.0" type="qcurve" smooth="yes"/>
      <point x="240.0" y="653.0"/>
      <point x="78.0" y="851.0"/>
      <point x="99.0" y="1040.0" type="qcurve" smooth="yes"/>
      <point x="127.0" y="1295.0"/>
      <point x="459.0" y="1557.0"/>
      <point x="704.0" y="1557.0" type="qcurve" smooth="yes"/>
      <point x="880.0" y="1557.0"/>
      <point x="1209.0" y="1360.0"/>
      <point x="1182.0" y="1075.0" type="qcurve" smooth="yes"/>
      <point x="1139.0" y="572.0"/>
      <point x="422.0" y="6.0"/>
    </contour>
  </outline>
</glyph>
<glyph name="colon" format="2">
  <advance width="462"/>
  <unicode hex="003A"/>
  <outline>
    <contour>
      <point x="-20.0" y="199.0" type="qcurve" smooth="yes"/>
      <point x="-20.0" y="291.0"/>
      <point x="113.0" y="424.0"/>
      <point x="218.0" y="424.0" type="qcurve" smooth="yes"/>
      <point x="321.0" y="424.0"/>
      <point x="455.0" y="291.0"/>
      <point x="455.0" y="199.0" type="qcurve" smooth="yes"/>
      <point x="455.0" y="111.0"/>
      <point x="321.0" y="-23.0"/>
      <point x="218.0" y="-23.0" type="qcurve" smooth="yes"/>
      <point x="113.0" y="-23.0"/>
      <point x="-20.0" y="111.0"/>
    </contour>
    <contour>
      <point x="87.0" y="809.0" type="qcurve" smooth="yes"/>
      <point x="87.0" y="901.0"/>
      <point x="220.0" y="1034.0"/>
      <point x="325.0" y="1034.0" type="qcurve" smooth="yes"/>
      <point x="428.0" y="1034.0"/>
      <point x="562.0" y="901.0"/>
      <point x="562.0" y="809.0" type="qcurve" smooth="yes"/>
      <point x="562.0" y="721.0"/>
      <point x="428.0" y="587.0"/>
      <point x="325.0" y="587.0" type="qcurve" smooth="yes"/>
      <point x="220.0" y="587.0"/>
      <point x="87.0" y="721.0"/>
    </contour>
  </outline>
</glyph>
<glyph name="semicolon" format="2">
  <advance width="590"/>
  <unicode hex="003B"/>
  <outline>
    <contour>
      <point x="107.0" y="809.0" type="qcurve" smooth="yes"/>
      <point x="107.0" y="901.0"/>
      <point x="240.0" y="1034.0"/>
      <point x="345.0" y="1034.0" type="qcurve" smooth="yes"/>
      <point x="448.0" y="1034.0"/>
      <point x="582.0" y="901.0"/>
      <point x="582.0" y="809.0" type="qcurve" smooth="yes"/>
      <point x="582.0" y="721.0"/>
      <point x="448.0" y="587.0"/>
      <point x="345.0" y="587.0" type="qcurve" smooth="yes"/>
      <point x="240.0" y="587.0"/>
      <point x="107.0" y="721.0"/>
    </contour>
    <contour>
      <point x="-33.0" y="-224.0" type="line"/>
      <point x="44.0" y="-178.0"/>
      <point x="172.0" y="-62.0"/>
      <point x="198.0" y="2.0" type="qcurve"/>
      <point x="85.0" y="2.0"/>
      <point x="-34.0" y="118.0"/>
      <point x="-34.0" y="209.0" type="qcurve" smooth="yes"/>
      <point x="-34.0" y="298.0"/>
      <point x="108.0" y="432.0"/>
      <point x="207.0" y="432.0" type="qcurve" smooth="yes"/>
      <point x="306.0" y="432.0"/>
      <point x="437.0" y="310.0"/>
      <point x="437.0" y="178.0" type="qcurve" smooth="yes"/>
      <point x="437.0" y="32.0"/>
      <point x="234.0" y="-235.0"/>
      <point x="55.0" y="-334.0" type="qcurve"/>
    </contour>
  </outline>
</glyph>
<glyph name="less" format="2">
  <advance width="559"/>
  <unicode hex="003C"/>
  <outline>
    <contour>
      <point x="-81.0" y="547.0" type="qcurve"/>
      <point x="-199.0" y="477.0"/>
      <point x="428.0" y="1032.0"/>
      <point x="509.0" y="1105.0" type="qcurve" smooth="yes"/>
      <point x="597.0" y="1187.0"/>
      <point x="736.0" y="997.0"/>
      <point x="659.0" y="907.0" type="qcurve" smooth="yes"/>
      <point x="591.0" y="813.0"/>
      <point x="378.0" y="608.0"/>
      <point x="384.0" y="555.0" type="qcurve"/>
      <point x="385.0" y="477.0"/>
      <point x="519.0" y="232.0"/>
      <point x="536.0" y="160.0" type="qcurve"/>
      <point x="577.0" y="75.0"/>
      <point x="404.0" y="-65.0"/>
      <point x="364.0" y="7.0" type="qcurve" smooth="yes"/>
      <point x="325.0" y="76.0"/>
      <point x="-129.0" y="596.0"/>
    </contour>
  </outline>
</glyph>
<glyph name="equal" format="2">
  <advance width="889"/>
  <unicode hex="003D"/>
  <outline>
    <contour>
      <point x="84.0" y="328.0" type="line"/>
      <point x="84.0" y="579.0" type="line"/>
      <point x="438.0" y="573.0" type="line"/>
      <point x="796.0" y="579.0" type="line"/>
      <point x="796.0" y="328.0" type="line"/>
      <point x="438.0" y="328.0" type="line"/>
    </contour>
    <contour>
      <point x="84.0" y="673.0" type="line"/>
      <point x="84.0" y="924.0" type="line"/>
      <point x="438.0" y="924.0" type="line"/>
      <point x="796.0" y="924.0" type="line"/>
      <point x="796.0" y="673.0" type="line"/>
      <point x="438.0" y="679.0" type="line"/>
    </contour>
  </outline>
</glyph>
<glyph name="at" format="2">
  <advance width="1549"/>
  <unicode hex="0040"/>
  <outline>
    <contour>
      <point x="362" y="571" type="qcurve"/>
      <point x="364" y="796"/>
      <point x="707" y="1204"/>
      <point x="908" y="1204" type="qcurve" smooth="yes"/>
      <point x="921" y="1204"/>
      <point x="991" y="1181"/>
      <point x="1019" y="1150" type="qcurve"/>
      <point x="1066" y="1222" type="line"/>
      <point x="1136" y="1222" type="line"/>
      <point x="1216" y="1109" type="line"/>
      <point x="1095" y="689" type="line"/>
      <point x="1080" y="607" type="line" smooth="yes"/>
      <point x="1071" y="559"/>
      <point x="1101" y="492"/>
      <point x="1143" y="492" type="qcurve" smooth="yes"/>
      <point x="1222" y="492"/>
      <point x="1336" y="657"/>
      <point x="1359" y="808" type="qcurve" smooth="yes"/>
      <point x="1401" y="1085"/>
      <point x="1182" y="1390"/>
      <point x="915" y="1390" type="qcurve" smooth="yes"/>
      <point x="679" y="1390"/>
      <point x="275" y="1013"/>
      <point x="237" y="714" type="qcurve" smooth="yes"/>
      <point x="194" y="378"/>
      <point x="431" y="84"/>
      <point x="638" y="84" type="qcurve" smooth="yes"/>
      <point x="755" y="84"/>
      <point x="947" y="124"/>
      <point x="1008" y="163" type="qcurve"/>
      <point x="1053" y="27" type="line"/>
      <point x="940" y="-28"/>
      <point x="710" y="-69"/>
      <point x="612" y="-69" type="qcurve" smooth="yes"/>
      <point x="348" y="-69"/>
      <point x="0" y="354"/>
      <point x="53" y="723" type="qcurve" smooth="yes"/>
      <point x="104" y="1074"/>
      <point x="645" y="1550"/>
      <point x="946" y="1550" type="qcurve" smooth="yes"/>
      <point x="1272" y="1550"/>
      <point x="1569" y="1152"/>
      <point x="1517" y="803" type="qcurve" smooth="yes"/>
      <point x="1478" y="544"/>
      <point x="1213" y="317"/>
      <point x="1052" y="317" type="qcurve" smooth="yes"/>
      <point x="966" y="317"/>
      <point x="886" y="377"/>
      <point x="864" y="459" type="qcurve"/>
      <point x="831" y="419"/>
      <point x="662" y="319"/>
      <point x="561" y="319" type="qcurve" smooth="yes"/>
      <point x="475" y="319"/>
      <point x="362" y="448"/>
    </contour>
    <contour>
      <point x="667" y="578" type="qcurve" smooth="yes"/>
      <point x="667" y="531"/>
      <point x="677" y="498"/>
      <point x="698" y="498" type="qcurve" smooth="yes"/>
      <point x="733" y="498"/>
      <point x="812" y="570"/>
      <point x="857" y="743" type="qcurve" smooth="yes"/>
      <point x="933" y="996" type="line"/>
      <point x="930" y="1016"/>
      <point x="909" y="1049"/>
      <point x="886" y="1049" type="qcurve" smooth="yes"/>
      <point x="824" y="1049"/>
      <point x="667" y="675"/>
    </contour>
  </outline>
</glyph>
<glyph name="B" format="2">
  <advance width="1352"/>
  <unicode hex="0042"/>
  <outline>
    <contour>
      <point x="-105" y="0" type="line"/>
      <point x="-85" y="172" type="line"/>
      <point x="14" y="193" type="line"/>
      <point x="134" y="821" type="line"/>
      <point x="227" y="1293" type="line"/>
      <point x="114" y="1315" type="line"/>
      <point x="140" y="1500" type="line"/>
      <point x="973" y="1500" type="line" smooth="yes"/>
      <point x="1180" y="1500"/>
      <point x="1373" y="1295"/>
      <point x="1348" y="1131" type="qcurve" smooth="yes"/>
      <point x="1328" y="1001"/>
      <point x="1196" y="860"/>
      <point x="1046" y="829" type="qcurve"/>
      <point x="1045" y="822" type="line"/>
      <point x="1175" y="791"/>
      <point x="1308" y="580"/>
      <point x="1274" y="390" type="qcurve" smooth="yes"/>
      <point x="1243" y="218"/>
      <point x="994" y="0"/>
      <point x="706" y="0" type="qcurve" smooth="yes"/>
    </contour>
    <contour>
      <point x="544" y="197" type="line"/>
      <point x="558" y="177" type="line"/>
      <point x="599" y="177" type="line" smooth="yes"/>
      <point x="657" y="177"/>
      <point x="714" y="279"/>
      <point x="744" y="443" type="qcurve" smooth="yes"/>
      <point x="778" y="627"/>
      <point x="723" y="708"/>
      <point x="685" y="708" type="qcurve" smooth="yes"/>
      <point x="654" y="708" type="line"/>
      <point x="636" y="694" type="line"/>
    </contour>
    <contour>
      <point x="677" y="897" type="line"/>
      <point x="688" y="874" type="line"/>
      <point x="714" y="874" type="line" smooth="yes"/>
      <point x="773" y="874"/>
      <point x="814" y="991"/>
      <point x="832" y="1100" type="qcurve" smooth="yes"/>
      <point x="853" y="1226"/>
      <point x="842" y="1316"/>
      <point x="794" y="1316" type="qcurve" smooth="yes"/>
      <point x="770" y="1316" type="line"/>
      <point x="752" y="1298" type="line"/>
    </contour>
  </outline>
</glyph>
<glyph name="C" format="2">
  <advance width="1212"/>
  <unicode hex="0043"/>
  <outline>
    <contour>
      <point x="77" y="875" type="qcurve" smooth="yes"/>
      <point x="168" y="1246"/>
      <point x="642" y="1569"/>
      <point x="960" y="1534" type="qcurve" smooth="yes"/>
      <point x="1084" y="1520"/>
      <point x="1189" y="1472"/>
      <point x="1207" y="1462" type="qcurve"/>
      <point x="1245" y="1445" type="line"/>
      <point x="1275" y="1413" type="line"/>
      <point x="1182" y="947" type="line"/>
      <point x="986" y="947" type="line"/>
      <point x="1017" y="1251" type="line"/>
      <point x="1008" y="1274"/>
      <point x="973" y="1314"/>
      <point x="928" y="1320" type="qcurve" smooth="yes"/>
      <point x="823" y="1335"/>
      <point x="732" y="1094"/>
      <point x="651" y="754" type="qcurve" smooth="yes"/>
      <point x="582" y="465"/>
      <point x="582" y="220"/>
      <point x="681" y="190" type="qcurve" smooth="yes"/>
      <point x="772" y="163"/>
      <point x="961" y="251"/>
      <point x="1036" y="365" type="qcurve"/>
      <point x="1087" y="330" type="line"/>
      <point x="1134" y="218" type="line"/>
      <point x="1072" y="106"/>
      <point x="730" y="-48"/>
      <point x="514" y="-5" type="qcurve" smooth="yes"/>
      <point x="239" y="50"/>
      <point x="-11" y="517"/>
    </contour>
  </outline>
</glyph>
<glyph name="D" format="2">
  <advance width="1386"/>
  <unicode hex="0044"/>
  <outline>
    <contour>
      <point x="-107" y="0" type="line"/>
      <point x="-85" y="173" type="line"/>
      <point x="14" y="192" type="line"/>
      <point x="128" y="798" type="line"/>
      <point x="229" y="1294" type="line"/>
      <point x="117" y="1316" type="line"/>
      <point x="142" y="1500" type="line"/>
      <point x="863" y="1500" type="line" smooth="yes"/>
      <point x="1121" y="1500"/>
      <point x="1388" y="1123"/>
      <point x="1330" y="730" type="qcurve" smooth="yes"/>
      <point x="1279" y="384"/>
      <point x="907" y="0"/>
      <point x="671" y="0" type="qcurve" smooth="yes"/>
    </contour>
    <contour>
      <point x="536" y="186" type="line"/>
      <point x="542" y="185"/>
      <point x="559" y="181"/>
      <point x="589" y="181" type="qcurve" smooth="yes"/>
      <point x="655" y="180"/>
      <point x="727" y="414"/>
      <point x="786" y="754" type="qcurve" smooth="yes"/>
      <point x="855" y="1155"/>
      <point x="857" y="1318"/>
      <point x="790" y="1318" type="qcurve" smooth="yes"/>
      <point x="781" y="1318"/>
      <point x="765" y="1317"/>
      <point x="755" y="1314" type="qcurve"/>
      <point x="648" y="754" type="line"/>
    </contour>
  </outline>
</glyph>
<glyph name="F" format="2">
  <advance width="1391"/>
  <unicode hex="0046"/>
  <outline>
    <contour>
      <point x="3.0" y="0.0" type="line"/>
      <point x="18.0" y="165.0" type="line"/>
      <point x="98.0" y="178.0" type="line"/>
      <point x="232.0" y="842.0" type="line"/>
      <point x="313.0" y="1294.0" type="line"/>
      <point x="185.0" y="1315.0" type="line"/>
      <point x="211.0" y="1500.0" type="line"/>
      <point x="1426.0" y="1500.0" type="line"/>
      <point x="1408.0" y="1129.0" type="line"/>
      <point x="1198.0" y="1129.0" type="line"/>
      <point x="1148.0" y="1310.0" type="line"/>
      <point x="903.0" y="1288.0" type="line"/>
      <point x="864.0" y="1264.0" type="line"/>
      <point x="762.0" y="801.0" type="line"/>
      <point x="661.0" y="183.0" type="line"/>
      <point x="802.0" y="165.0" type="line"/>
      <point x="780.0" y="0.0" type="line"/>
    </contour>
    <contour>
      <point x="448.0" y="622.0" type="line"/>
      <point x="473.0" y="769.0" type="line"/>
      <point x="1030.0" y="782.0" type="line"/>
      <point x="1098.0" y="929.0" type="line"/>
      <point x="1272.0" y="929.0" type="line"/>
      <point x="1194.0" y="435.0" type="line"/>
      <point x="1017.0" y="435.0" type="line"/>
      <point x="1013.0" y="592.0" type="line"/>
    </contour>
  </outline>
</glyph>
<glyph name="G" format="2">
  <advance width="1369"/>
  <unicode hex="0047"/>
  <outline>
    <contour>
      <point x="76" y="873" type="qcurve" smooth="yes"/>
      <point x="170" y="1249"/>
      <point x="674" y="1570"/>
      <point x="993.0" y="1534.0" type="qcurve" smooth="yes"/>
      <point x="1100" y="1522"/>
      <point x="1228" y="1490"/>
      <point x="1257.0" y="1465.0" type="qcurve" smooth="yes"/>
      <point x="1297.0" y="1439.0" type="line"/>
      <point x="1326.0" y="1416.0" type="line"/>
      <point x="1232.0" y="944.0" type="line"/>
      <point x="1033.0" y="944.0" type="line"/>
      <point x="1063.0" y="1203.0" type="line"/>
      <point x="1064.0" y="1254.0"/>
      <point x="1009" y="1315"/>
      <point x="960" y="1320" type="qcurve" smooth="yes"/>
      <point x="852.0" y="1331.0"/>
      <point x="730" y="1092"/>
      <point x="660" y="789" type="qcurve" smooth="yes"/>
      <point x="584" y="459"/>
      <point x="575" y="230"/>
      <point x="633.0" y="202.0" type="qcurve" smooth="yes"/>
      <point x="653" y="192"/>
      <point x="679.0" y="195.0"/>
      <point x="701.0" y="196.0" type="qcurve"/>
      <point x="758.0" y="505.0" type="line"/>
      <point x="693.0" y="527.0" type="line"/>
      <point x="720.0" y="712.0" type="line"/>
      <point x="1339.0" y="715.0" type="line"/>
      <point x="1322.0" y="530.0" type="line"/>
      <point x="1253.0" y="508.0" type="line"/>
      <point x="1193.0" y="184.0" type="line"/>
      <point x="1170.0" y="167.0" type="line"/>
      <point x="1111.0" y="93.0"/>
      <point x="718" y="-52"/>
      <point x="478" y="0" type="qcurve" smooth="yes"/>
      <point x="218" y="56"/>
      <point x="-18" y="499"/>
    </contour>
  </outline>
</glyph>
<glyph name="I" format="2">
  <advance width="873"/>
  <unicode hex="0049"/>
  <outline>
    <contour>
      <point x="-34.0" y="0.0" type="line"/>
      <point x="-17.0" y="162.0" type="line"/>
      <point x="55.0" y="177.0" type="line"/>
      <point x="192.0" y="848.0" type="line"/>
      <point x="278.0" y="1293.0" type="line"/>
      <point x="182.0" y="1316.0" type="line"/>
      <point x="206.0" y="1500.0" type="line"/>
      <point x="949.0" y="1500.0" type="line"/>
      <point x="915.0" y="1316.0" type="line"/>
      <point x="836.0" y="1293.0" type="line"/>
      <point x="738.0" y="816.0" type="line"/>
      <point x="613.0" y="176.0" type="line"/>
      <point x="693.0" y="162.0" type="line"/>
      <point x="681.0" y="0.0" type="line"/>
    </contour>
  </outline>
</glyph>
<glyph name="K" format="2">
  <advance width="1436"/>
  <unicode hex="004B"/>
  <outline>
    <contour>
      <point x="-106.0" y="0.0" type="line"/>
      <point x="-84.0" y="173.0" type="line"/>
      <point x="13.0" y="192.0" type="line"/>
      <point x="138.0" y="828.0" type="line"/>
      <point x="229.0" y="1294.0" type="line"/>
      <point x="118.0" y="1316.0" type="line"/>
      <point x="141.0" y="1500.0" type="line"/>
      <point x="861.0" y="1500.0" type="line"/>
      <point x="836.0" y="1316.0" type="line"/>
      <point x="755.0" y="1294.0" type="line"/>
      <point x="667.0" y="816.0" type="line"/>
      <point x="548.0" y="192.0" type="line"/>
      <point x="594.0" y="173.0" type="line"/>
      <point x="566.0" y="0.0" type="line"/>
    </contour>
    <contour>
      <point x="554.0" y="443.0" type="line"/>
      <point x="604.0" y="722.0" type="line"/>
      <point x="1127.0" y="1285.0" type="line"/>
      <point x="968.0" y="1314.0" type="line"/>
      <point x="999.0" y="1500.0" type="line"/>
      <point x="1545.0" y="1500.0" type="line"/>
      <point x="1513.0" y="1316.0" type="line"/>
      <point x="1381.0" y="1295.0" type="line"/>
    </contour>
    <contour>
      <point x="668.0" y="689.0" type="line"/>
      <point x="1122.0" y="1121.0" type="line"/>
      <point x="1255.0" y="184.0" type="line"/>
      <point x="1337.0" y="169.0" type="line"/>
      <point x="1315.0" y="0.0" type="line"/>
      <point x="628.0" y="0.0" type="line"/>
      <point x="653.0" y="169.0" type="line"/>
      <point x="708.0" y="184.0" type="line"/>
    </contour>
  </outline>
</glyph>
<glyph name="M" format="2">
  <advance width="1784"/>
  <unicode hex="004D"/>
  <outline>
    <contour>
      <point x="-74.0" y="0.0" type="line"/>
      <point x="-44.0" y="180.0" type="line"/>
      <point x="61.0" y="235.0" type="line"/>
      <point x="166.0" y="754.0" type="line"/>
      <point x="271.0" y="1265.0" type="line"/>
      <point x="150.0" y="1311.0" type="line"/>
      <point x="188.0" y="1500.0" type="line"/>
      <point x="874.0" y="1500.0" type="line"/>
      <point x="879.0" y="942.0" type="line"/>
      <point x="850.0" y="550.0" type="line"/>
      <point x="959.0" y="882.0" type="line"/>
      <point x="1197.0" y="1500.0" type="line"/>
      <point x="1885.0" y="1500.0" type="line"/>
      <point x="1848.0" y="1314.0" type="line"/>
      <point x="1768.0" y="1281.0" type="line"/>
      <point x="1656.0" y="753.0" type="line"/>
      <point x="1557.0" y="205.0" type="line"/>
      <point x="1655.0" y="180.0" type="line"/>
      <point x="1631.0" y="0.0" type="line"/>
      <point x="892.0" y="0.0" type="line"/>
      <point x="924.0" y="180.0" type="line"/>
      <point x="995.0" y="205.0" type="line"/>
      <point x="1115.0" y="753.0" type="line"/>
      <point x="1167.0" y="1040.0" type="line"/>
      <point x="1071.0" y="726.0" type="line"/>
      <point x="804.0" y="0.0" type="line"/>
      <point x="370.0" y="0.0" type="line"/>
      <point x="387.0" y="668.0" type="line"/>
      <point x="399.0" y="1065.0" type="line"/>
      <point x="349.0" y="754.0" type="line"/>
      <point x="248.0" y="235.0" type="line"/>
      <point x="304.0" y="180.0" type="line"/>
      <point x="281.0" y="0.0" type="line"/>
    </contour>
  </outline>
</glyph>
<glyph name="N" format="2">
  <advance width="1443"/>
  <unicode hex="004E"/>
  <outline>
    <contour>
      <point x="-83.0" y="0.0" type="line"/>
      <point x="-49.0" y="182.0" type="line"/>
      <point x="58.0" y="199.0" type="line"/>
      <point x="166.0" y="754.0" type="line"/>
      <point x="272.0" y="1289.0" type="line"/>
      <point x="148.0" y="1313.0" type="line"/>
      <point x="196.0" y="1500.0" type="line"/>
      <point x="825.0" y="1500.0" type="line"/>
      <point x="983.0" y="943.0" type="line"/>
      <point x="1099.0" y="536.0" type="line"/>
      <point x="1149.0" y="822.0" type="line"/>
      <point x="1241.0" y="1281.0" type="line"/>
      <point x="1129.0" y="1316.0" type="line"/>
      <point x="1159.0" y="1500.0" type="line"/>
      <point x="1601.0" y="1500.0" type="line"/>
      <point x="1572.0" y="1315.0" type="line"/>
      <point x="1468.0" y="1280.0" type="line"/>
      <point x="1364.0" y="779.0" type="line"/>
      <point x="1212.0" y="-4.0" type="line"/>
      <point x="716.0" y="-4.0" type="line"/>
      <point x="540.0" y="585.0" type="line"/>
      <point x="432.0" y="1004.0" type="line"/>
      <point x="379.0" y="701.0" type="line"/>
      <point x="285.0" y="202.0" type="line"/>
      <point x="393.0" y="179.0" type="line"/>
      <point x="358.0" y="0.0" type="line"/>
    </contour>
  </outline>
</glyph>
<glyph name="O" format="2">
  <advance width="1418"/>
  <unicode hex="004F"/>
  <outline>
    <contour>
      <point x="90.0" y="909.0" type="qcurve" smooth="yes"/>
      <point x="171.0" y="1255.0"/>
      <point x="589.0" y="1570.0"/>
      <point x="879.0" y="1531.0" type="qcurve" smooth="yes"/>
      <point x="1127.0" y="1499.0"/>
      <point x="1430.0" y="1030.0"/>
      <point x="1345.0" y="672.0" type="qcurve" smooth="yes"/>
      <point x="1259.0" y="310.0"/>
      <point x="802.0" y="-63.0"/>
      <point x="532.0" y="-38.0" type="qcurve" smooth="yes"/>
      <point x="226.0" y="-8.0"/>
      <point x="-6.0" y="501.0"/>
    </contour>
    <contour>
      <point x="662.0" y="823.0" type="qcurve" smooth="yes"/>
      <point x="602.0" y="516.0"/>
      <point x="508.0" y="175.0"/>
      <point x="561.0" y="155.0" type="qcurve" smooth="yes"/>
      <point x="579.0" y="140.0"/>
      <point x="711.0" y="451.0"/>
      <point x="781.0" y="761.0" type="qcurve" smooth="yes"/>
      <point x="861.0" y="1124.0"/>
      <point x="857.0" y="1321.0"/>
      <point x="827.0" y="1323.0" type="qcurve" smooth="yes"/>
      <point x="772.0" y="1328.0"/>
      <point x="727.0" y="1144.0"/>
    </contour>
  </outline>
</glyph>
<glyph name="R" format="2">
  <advance width="1577"/>
  <unicode hex="0052"/>
  <outline>
    <contour>
      <point x="-107.0" y="0.0" type="line"/>
      <point x="-84.0" y="172.0" type="line"/>
      <point x="15.0" y="191.0" type="line"/>
      <point x="138.0" y="846.0" type="line"/>
      <point x="228.0" y="1293.0" type="line"/>
      <point x="117.0" y="1315.0" type="line"/>
      <point x="141.0" y="1500.0" type="line"/>
      <point x="1030.0" y="1500.0" type="line" smooth="yes"/>
      <point x="1273" y="1500"/>
      <point x="1519.0" y="1260.0"/>
      <point x="1505.0" y="1072.0" type="qcurve" smooth="yes"/>
      <point x="1492.0" y="870.0"/>
      <point x="1249.0" y="636.0"/>
      <point x="995.0" y="636.0" type="qcurve" smooth="yes"/>
      <point x="934.0" y="636.0"/>
      <point x="598.0" y="635.0"/>
      <point x="547.0" y="640.0" type="qcurve"/>
      <point x="584.0" y="825.0" type="line"/>
      <point x="748.0" y="825.0" type="line"/>
      <point x="726.0" y="825.0" type="line" smooth="yes"/>
      <point x="865.0" y="825.0"/>
      <point x="1003.0" y="950.0"/>
      <point x="1010.0" y="1090.0" type="qcurve" smooth="yes"/>
      <point x="1016.0" y="1209.0"/>
      <point x="913.0" y="1299.0"/>
      <point x="789.0" y="1299.0" type="qcurve" smooth="yes"/>
      <point x="785.0" y="1299.0" type="line"/>
      <point x="758.0" y="1281.0" type="line"/>
      <point x="648.0" y="734.0" type="line"/>
      <point x="553.0" y="181.0" type="line"/>
      <point x="664.0" y="175.0" type="line"/>
      <point x="644.0" y="0.0" type="line"/>
    </contour>
    <contour>
      <point x="715.0" y="719.0" type="line"/>
      <point x="1199.0" y="750.0" type="line"/>
      <point x="1226.0" y="668.0" type="line" smooth="yes"/>
      <point x="1292.0" y="440.0"/>
      <point x="1468.0" y="163.0"/>
      <point x="1538.0" y="167.0" type="qcurve"/>
      <point x="1500.0" y="0.0" type="line"/>
      <point x="1188.0" y="0.0" type="line" smooth="yes"/>
      <point x="998.0" y="0.0"/>
      <point x="789.0" y="306.0"/>
      <point x="737.0" y="577.0" type="qcurve" smooth="yes"/>
    </contour>
  </outline>
</glyph>
<glyph name="S" format="2">
  <advance width="1060"/>
  <unicode hex="0053"/>
  <outline>
    <contour>
      <point x="-117" y="14" type="line"/>
      <point x="-4" y="525" type="line"/>
      <point x="195" y="517" type="line"/>
      <point x="185" y="363" type="line" smooth="yes"/>
      <point x="179" y="270"/>
      <point x="267" y="171"/>
      <point x="342" y="165" type="qcurve" smooth="yes"/>
      <point x="415" y="159"/>
      <point x="520" y="239"/>
      <point x="530" y="335" type="qcurve" smooth="yes"/>
      <point x="539" y="424"/>
      <point x="382" y="576"/>
      <point x="282" y="660" type="qcurve" smooth="yes"/>
      <point x="134" y="785"/>
      <point x="73" y="1057"/>
      <point x="107" y="1205" type="qcurve" smooth="yes"/>
      <point x="145" y="1364"/>
      <point x="459" y="1524"/>
      <point x="642" y="1524.0" type="qcurve" smooth="yes"/>
      <point x="766" y="1524"/>
      <point x="906" y="1478"/>
      <point x="943" y="1455" type="qcurve"/>
      <point x="978" y="1531" type="line"/>
      <point x="1143" y="1504" type="line"/>
      <point x="1049" y="1036" type="line"/>
      <point x="842" y="1036" type="line"/>
      <point x="864" y="1187" type="line" smooth="yes"/>
      <point x="874" y="1248"/>
      <point x="785" y="1335"/>
      <point x="717" y="1335" type="qcurve" smooth="yes"/>
      <point x="654" y="1335"/>
      <point x="581" y="1291"/>
      <point x="571" y="1238" type="qcurve" smooth="yes"/>
      <point x="559" y="1164"/>
      <point x="682" y="1039"/>
      <point x="787" y="945" type="qcurve" smooth="yes"/>
      <point x="918" y="841"/>
      <point x="1033" y="579"/>
      <point x="1005" y="407" type="qcurve" smooth="yes"/>
      <point x="973" y="214"/>
      <point x="663" y="-21"/>
      <point x="425" y="-21" type="qcurve" smooth="yes"/>
      <point x="293" y="-21"/>
      <point x="154" y="39"/>
      <point x="123" y="68" type="qcurve"/>
      <point x="56" y="-5" type="line"/>
    </contour>
  </outline>
</glyph>
<glyph name="T" format="2">
  <advance width="1369"/>
  <unicode hex="0054"/>
  <outline>
    <contour>
      <point x="64" y="1044" type="line"/>
      <point x="148" y="1500" type="line"/>
      <point x="1479" y="1500" type="line"/>
      <point x="1375" y="1044" type="line"/>
      <point x="1180" y="1044" type="line"/>
      <point x="1190" y="1323" type="line"/>
      <point x="1062" y="1323" type="line"/>
      <point x="1040" y="1303" type="line"/>
      <point x="930" y="754" type="line"/>
      <point x="829" y="193" type="line"/>
      <point x="955" y="172" type="line"/>
      <point x="930" y="0" type="line"/>
      <point x="127" y="0" type="line"/>
      <point x="145" y="172" type="line"/>
      <point x="276" y="190" type="line"/>
      <point x="385" y="754" type="line"/>
      <point x="492" y="1303" type="line"/>
      <point x="488" y="1323" type="line"/>
      <point x="343" y="1323" type="line"/>
      <point x="249" y="1044" type="line"/>
    </contour>
  </outline>
</glyph>
<glyph name="V" format="2">
  <advance width="1217"/>
  <unicode hex="0056"/>
  <outline>
    <contour>
      <point x="98" y="1312" type="line"/>
      <point x="127" y="1500" type="line"/>
      <point x="809" y="1500" type="line"/>
      <point x="780" y="1312" type="line"/>
      <point x="690" y="1278" type="line"/>
      <point x="670" y="816" type="line"/>
      <point x="650" y="360" type="line"/>
      <point x="663" y="360" type="line"/>
      <point x="822" y="862" type="line"/>
      <point x="954" y="1277" type="line"/>
      <point x="854" y="1311" type="line"/>
      <point x="889" y="1500" type="line"/>
      <point x="1309" y="1500" type="line"/>
      <point x="1277" y="1317" type="line"/>
      <point x="1142" y="1277" type="line"/>
      <point x="989" y="804" type="line"/>
      <point x="729" y="0" type="line"/>
      <point x="133" y="0" type="line"/>
      <point x="155" y="783" type="line"/>
      <point x="169" y="1278" type="line"/>
    </contour>
  </outline>
</glyph>
<glyph name="W" format="2">
  <advance width="2131"/>
  <unicode hex="0057"/>
  <outline>
    <contour>
      <point x="209.0" y="1316.0" type="line"/>
      <point x="225.0" y="1500.0" type="line"/>
      <point x="905.0" y="1500.0" type="line"/>
      <point x="889.0" y="1316.0" type="line"/>
      <point x="813.0" y="1279.0" type="line"/>
      <point x="824.0" y="823.0" type="line"/>
      <point x="849.0" y="530.0" type="line"/>
      <point x="858.0" y="530.0" type="line"/>
      <point x="944.0" y="802.0" type="line"/>
      <point x="1111.0" y="1244.0" type="line"/>
      <point x="1187.0" y="978.0" type="line"/>
      <point x="1049.0" y="655.0" type="line"/>
      <point x="787.0" y="0.0" type="line"/>
      <point x="336.0" y="0.0" type="line"/>
      <point x="310.0" y="767.0" type="line"/>
      <point x="280.0" y="1279.0" type="line"/>
    </contour>
    <contour>
      <point x="966.0" y="1312.0" type="line"/>
      <point x="981.0" y="1500.0" type="line"/>
      <point x="1621.0" y="1500.0" type="line"/>
      <point x="1606.0" y="1319.0" type="line"/>
      <point x="1507.0" y="1279.0" type="line"/>
      <point x="1501.0" y="835.0" type="line"/>
      <point x="1496.0" y="541.0" type="line"/>
      <point x="1508.0" y="544.0" type="line"/>
      <point x="1616.0" y="856.0" type="line"/>
      <point x="1810.0" y="1269.0" type="line"/>
      <point x="1718.0" y="1317.0" type="line"/>
      <point x="1760.0" y="1500.0" type="line"/>
      <point x="2179.0" y="1500.0" type="line"/>
      <point x="2137.0" y="1317.0" type="line"/>
      <point x="2018.0" y="1274.0" type="line"/>
      <point x="1792.0" y="808.0" type="line"/>
      <point x="1442.0" y="0.0" type="line"/>
      <point x="1004.0" y="0.0" type="line"/>
      <point x="1039.0" y="753.0" type="line"/>
      <point x="1031.0" y="1279.0" type="line"/>
    </contour>
  </outline>
</glyph>
<glyph name="X" format="2">
  <advance width="1237"/>
  <unicode hex="0058"/>
  <outline>
    <contour>
      <point x="-137" y="0" type="line"/>
      <point x="-104" y="170" type="line"/>
      <point x="-7" y="199" type="line"/>
      <point x="496" y="832" type="line"/>
      <point x="569" y="832" type="line"/>
      <point x="911" y="1278" type="line"/>
      <point x="833" y="1325" type="line"/>
      <point x="864" y="1500" type="line"/>
      <point x="1285" y="1500" type="line"/>
      <point x="1251" y="1325" type="line"/>
      <point x="1148" y="1289" type="line"/>
      <point x="677" y="690" type="line"/>
      <point x="602" y="688" type="line"/>
      <point x="228" y="205" type="line"/>
      <point x="308" y="170" type="line"/>
      <point x="285" y="0" type="line"/>
    </contour>
    <contour>
      <point x="100" y="1325" type="line"/>
      <point x="117" y="1500" type="line"/>
      <point x="787" y="1500" type="line"/>
      <point x="770" y="1325" type="line"/>
      <point x="714" y="1291" type="line"/>
      <point x="837" y="840" type="line"/>
      <point x="1012" y="195" type="line"/>
      <point x="1124" y="165" type="line"/>
      <point x="1121" y="0" type="line"/>
      <point x="375" y="0" type="line"/>
      <point x="388" y="165" type="line"/>
      <point x="461" y="194" type="line"/>
      <point x="318" y="730" type="line"/>
      <point x="169" y="1289" type="line"/>
    </contour>
  </outline>
</glyph>
<glyph name="Y" format="2">
  <advance width="1195"/>
  <unicode hex="0059"/>
  <outline>
    <contour>
      <point x="106" y="1321" type="line"/>
      <point x="114" y="1500" type="line"/>
      <point x="806" y="1500" type="line"/>
      <point x="788" y="1321" type="line"/>
      <point x="701" y="1292" type="line"/>
      <point x="719" y="1054" type="line"/>
      <point x="737" y="784" type="line"/>
      <point x="858" y="1035" type="line"/>
      <point x="968" y="1276" type="line"/>
      <point x="871" y="1316" type="line"/>
      <point x="916" y="1500" type="line"/>
      <point x="1302" y="1500" type="line"/>
      <point x="1267" y="1316" type="line"/>
      <point x="1147" y="1275" type="line"/>
      <point x="991" y="952" type="line"/>
      <point x="817" y="577" type="line"/>
      <point x="740" y="195" type="line"/>
      <point x="864" y="170" type="line"/>
      <point x="840" y="0" type="line"/>
      <point x="50" y="0" type="line"/>
      <point x="73" y="170" type="line"/>
      <point x="186" y="195" type="line"/>
      <point x="263" y="561" type="line"/>
      <point x="210" y="958" type="line"/>
      <point x="167" y="1279" type="line"/>
    </contour>
  </outline>
</glyph>
<glyph name="Z" format="2">
  <advance width="1112"/>
  <unicode hex="005A"/>
  <outline>
    <contour>
      <point x="-71" y="0" type="line"/>
      <point x="-81" y="122" type="line"/>
      <point x="305" y="829" type="line"/>
      <point x="570" y="1314" type="line"/>
      <point x="565" y="1329" type="line"/>
      <point x="381" y="1329" type="line"/>
      <point x="303" y="1114" type="line"/>
      <point x="108" y="1114" type="line"/>
      <point x="169" y="1500" type="line"/>
      <point x="1186" y="1500" type="line"/>
      <point x="1169" y="1359" type="line"/>
      <point x="797" y="685" type="line"/>
      <point x="529" y="201" type="line"/>
      <point x="534" y="182" type="line"/>
      <point x="735" y="182" type="line"/>
      <point x="849" y="407" type="line"/>
      <point x="1067" y="407" type="line"/>
      <point x="940" y="0" type="line"/>
    </contour>
  </outline>
</glyph>
<glyph name="backslash" format="2">
  <advance width="704"/>
  <unicode hex="005C"/>
  <outline>
    <contour>
      <point x="193.0" y="1578.0" type="line"/>
      <point x="522.0" y="1592.0" type="line"/>
      <point x="568.0" y="-130.0" type="line"/>
      <point x="244.0" y="-151.0" type="line"/>
    </contour>
  </outline>
</glyph>
<glyph name="asciicircum" format="2">
  <advance width="1105"/>
  <unicode hex="005E"/>
  <outline>
    <contour>
      <point x="177.0" y="956.0" type="line"/>
      <point x="236.0" y="1018.0"/>
      <point x="689.0" y="1524.0"/>
      <point x="689.0" y="1524.0" type="qcurve"/>
      <point x="689.0" y="1524.0"/>
      <point x="972.0" y="1019.0"/>
      <point x="1009.0" y="957.0" type="qcurve"/>
      <point x="866.0" y="819.0" type="line"/>
      <point x="784.0" y="943.0"/>
      <point x="647.0" y="1144.0"/>
      <point x="647.0" y="1144.0" type="qcurve"/>
      <point x="647.0" y="1144.0"/>
      <point x="429.0" y="928.0"/>
      <point x="305.0" y="801.0" type="qcurve"/>
    </contour>
  </outline>
</glyph>
<glyph name="underscore" format="2">
  <advance width="677"/>
  <unicode hex="005F"/>
  <outline>
    <contour>
      <point x="-299.0" y="-557.0" type="line"/>
      <point x="-276.0" y="-311.0" type="line"/>
      <point x="174.0" y="-314.0" type="line"/>
      <point x="636.0" y="-311.0" type="line"/>
      <point x="613.0" y="-557.0" type="line"/>
      <point x="155.0" y="-561.0" type="line"/>
    </contour>
  </outline>
</glyph>
<glyph name="grave" format="2">
  <advance width="1024"/>
  <unicode hex="0060"/>
  <outline>
    <contour>
      <point x="466.0" y="1322.0" type="qcurve" smooth="yes"/>
      <point x="737.0" y="1150.0" type="line"/>
      <point x="831.0" y="1249.0" type="line"/>
      <point x="669.0" y="1448.0" type="line" smooth="yes"/>
      <point x="632.0" y="1497.0"/>
      <point x="531.0" y="1593.0"/>
      <point x="478.0" y="1593.0" type="qcurve" smooth="yes"/>
      <point x="442.0" y="1593.0"/>
      <point x="352.0" y="1525.0"/>
      <point x="352.0" y="1474.0" type="qcurve" smooth="yes"/>
      <point x="352.0" y="1430.0"/>
      <point x="412.0" y="1356.0"/>
    </contour>
  </outline>
</glyph>
<glyph name="a" format="2">
  <advance width="1295"/>
  <unicode hex="0061"/>
  <outline>
    <contour>
      <point x="1" y="309" type="qcurve" smooth="yes"/>
      <point x="18" y="626"/>
      <point x="396" y="1110"/>
      <point x="692" y="1110" type="qcurve" smooth="yes"/>
      <point x="781" y="1110"/>
      <point x="904" y="1036"/>
      <point x="927" y="1002" type="qcurve"/>
      <point x="1039" y="1111" type="line"/>
      <point x="1226" y="1111" type="line"/>
      <point x="1306" y="904" type="line"/>
      <point x="1170" y="415" type="line"/>
      <point x="1129" y="225" type="line"/>
      <point x="1141" y="176"/>
      <point x="1182" y="91"/>
      <point x="1216" y="46" type="qcurve"/>
      <point x="748" y="-18" type="line"/>
      <point x="722" y="18"/>
      <point x="681" y="108"/>
      <point x="665" y="175" type="qcurve"/>
      <point x="581" y="71"/>
      <point x="376" y="-10"/>
      <point x="241" y="-10" type="qcurve" smooth="yes"/>
      <point x="136" y="-10"/>
      <point x="-3" y="148"/>
    </contour>
    <contour>
      <point x="507" y="279" type="qcurve" smooth="yes"/>
      <point x="507" y="247"/>
      <point x="527" y="220"/>
      <point x="547" y="220" type="qcurve" smooth="yes"/>
      <point x="582" y="220"/>
      <point x="661" y="384"/>
      <point x="701" y="531" type="qcurve" smooth="yes"/>
      <point x="796" y="877" type="line"/>
      <point x="798" y="908"/>
      <point x="787" y="942"/>
      <point x="764" y="942" type="qcurve" smooth="yes"/>
      <point x="713" y="942"/>
      <point x="507" y="347"/>
    </contour>
  </outline>
</glyph>
<glyph name="b" format="2">
  <advance width="1334"/>
  <unicode hex="0062"/>
  <outline>
    <contour>
      <point x="84" y="452" type="qcurve" smooth="yes"/>
      <point x="128" y="644" type="line"/>
      <point x="295" y="1336" type="line"/>
      <point x="179" y="1396" type="line"/>
      <point x="218" y="1534" type="line"/>
      <point x="740" y="1602" type="line"/>
      <point x="820" y="1501" type="line"/>
      <point x="615" y="602" type="line"/>
      <point x="520" y="203" type="line" smooth="yes"/>
      <point x="507" y="148"/>
      <point x="527" y="113"/>
      <point x="564" y="113" type="qcurve" smooth="yes"/>
      <point x="613" y="113"/>
      <point x="694" y="280"/>
      <point x="795" y="750" type="qcurve" smooth="yes"/>
      <point x="806" y="803"/>
      <point x="784" y="856"/>
      <point x="756" y="856" type="qcurve" smooth="yes"/>
      <point x="714" y="856"/>
      <point x="623" y="759"/>
      <point x="550" y="668" type="qcurve"/>
      <point x="511" y="780" type="line"/>
      <point x="669" y="963"/>
      <point x="900" y="1114"/>
      <point x="1047" y="1114" type="qcurve" smooth="yes"/>
      <point x="1182" y="1114"/>
      <point x="1344" y="913"/>
      <point x="1331" y="762" type="qcurve" smooth="yes"/>
      <point x="1304" y="446"/>
      <point x="905" y="-32"/>
      <point x="537" y="-32" type="qcurve" smooth="yes"/>
      <point x="272" y="-32"/>
      <point x="28" y="209"/>
    </contour>
  </outline>
</glyph>
<glyph name="c" format="2">
  <advance width="1104"/>
  <unicode hex="0063"/>
  <outline>
    <contour>
      <point x="56.0" y="550.0" type="qcurve" smooth="yes"/>
      <point x="92.0" y="818.0"/>
      <point x="415.0" y="1139.0"/>
      <point x="750.0" y="1139.0" type="qcurve" smooth="yes"/>
      <point x="947.0" y="1139.0"/>
      <point x="1119.0" y="966.0"/>
      <point x="1114.0" y="860.0" type="qcurve" smooth="yes"/>
      <point x="1110.0" y="762.0"/>
      <point x="1002.0" y="647.0"/>
      <point x="971.0" y="620.0" type="qcurve"/>
      <point x="859.0" y="676.0" type="line"/>
      <point x="859.0" y="900.0" type="line" smooth="yes"/>
      <point x="859.0" y="918.0"/>
      <point x="820.0" y="957.0"/>
      <point x="782.0" y="957.0" type="qcurve" smooth="yes"/>
      <point x="747.0" y="957.0"/>
      <point x="622.0" y="704.0"/>
      <point x="599.0" y="514.0" type="qcurve" smooth="yes"/>
      <point x="570.0" y="305.0"/>
      <point x="606.0" y="156.0"/>
      <point x="656.0" y="156.0" type="qcurve" smooth="yes"/>
      <point x="735.0" y="156.0"/>
      <point x="859.0" y="272.0"/>
      <point x="912.0" y="358.0" type="qcurve"/>
      <point x="1018.0" y="252.0" type="line"/>
      <point x="1016.0" y="202.0" type="line"/>
      <point x="945.0" y="66.0"/>
      <point x="727.0" y="-53.0"/>
      <point x="541.0" y="-53.0" type="qcurve" smooth="yes"/>
      <point x="287.0" y="-53.0"/>
      <point x="14.0" y="258.0"/>
    </contour>
  </outline>
</glyph>
<glyph name="d" format="2">
  <advance width="1313"/>
  <unicode hex="0064"/>
  <outline>
    <contour>
      <point x="1" y="290" type="qcurve" smooth="yes"/>
      <point x="17" y="622"/>
      <point x="409" y="1086"/>
      <point x="755" y="1086" type="qcurve" smooth="yes"/>
      <point x="874" y="1086" type="line"/>
      <point x="934" y="1331" type="line"/>
      <point x="793" y="1394" type="line"/>
      <point x="823" y="1531" type="line"/>
      <point x="1360" y="1604" type="line"/>
      <point x="1433" y="1503" type="line"/>
      <point x="1167" y="469" type="line"/>
      <point x="1107" y="218" type="line"/>
      <point x="1254" y="205" type="line"/>
      <point x="1242" y="44" type="line"/>
      <point x="748" y="-8" type="line"/>
      <point x="683" y="104" type="line"/>
      <point x="664" y="200" type="line"/>
      <point x="614" y="126"/>
      <point x="437" y="-10"/>
      <point x="273" y="-10" type="qcurve" smooth="yes"/>
      <point x="136" y="-10"/>
      <point x="-6" y="146"/>
    </contour>
    <contour>
      <point x="512" y="331" type="qcurve" smooth="yes"/>
      <point x="495" y="274"/>
      <point x="513" y="223"/>
      <point x="542" y="223" type="qcurve" smooth="yes"/>
      <point x="575" y="223"/>
      <point x="646" y="339"/>
      <point x="697" y="526" type="qcurve" smooth="yes"/>
      <point x="794" y="883" type="line"/>
      <point x="799" y="907"/>
      <point x="781" y="941"/>
      <point x="756" y="941" type="qcurve" smooth="yes"/>
      <point x="706" y="941"/>
      <point x="610" y="668"/>
    </contour>
  </outline>
</glyph>
<glyph name="e" format="2">
  <advance width="1171"/>
  <unicode hex="0065"/>
  <outline>
    <contour>
      <point x="49" y="554" type="qcurve" smooth="yes"/>
      <point x="107" y="823"/>
      <point x="486" y="1119"/>
      <point x="749" y="1119" type="qcurve" smooth="yes"/>
      <point x="959" y="1119"/>
      <point x="1163" y="954"/>
      <point x="1163" y="836" type="qcurve" smooth="yes"/>
      <point x="1163" y="787"/>
      <point x="1153" y="700"/>
      <point x="1143" y="669" type="qcurve"/>
      <point x="1165" y="647" type="line"/>
      <point x="1128" y="514" type="line"/>
      <point x="1100" y="512"/>
      <point x="896" y="504"/>
      <point x="839" y="503" type="qcurve" smooth="yes"/>
      <point x="504" y="500" type="line"/>
      <point x="513" y="641" type="line"/>
      <point x="746" y="643" type="line"/>
      <point x="752" y="668"/>
      <point x="772" y="758"/>
      <point x="782" y="816" type="qcurve" smooth="yes"/>
      <point x="798" y="908"/>
      <point x="778" y="952"/>
      <point x="752" y="952" type="qcurve" smooth="yes"/>
      <point x="713" y="952"/>
      <point x="645" y="818"/>
      <point x="583" y="568" type="qcurve" smooth="yes"/>
      <point x="528" y="345"/>
      <point x="534" y="140"/>
      <point x="625" y="140" type="qcurve" smooth="yes"/>
      <point x="712" y="140"/>
      <point x="926" y="278"/>
      <point x="984" y="354" type="qcurve"/>
      <point x="1061" y="268" type="line"/>
      <point x="1061" y="202" type="line"/>
      <point x="990" y="105"/>
      <point x="709" y="-33"/>
      <point x="519" y="-35" type="qcurve" smooth="yes"/>
      <point x="269" y="-38"/>
      <point x="-12" y="270"/>
    </contour>
  </outline>
</glyph>
<glyph name="f" format="2">
  <advance width="770"/>
  <unicode hex="0066"/>
  <outline>
    <contour>
      <point x="-361" y="-432" type="line"/>
      <point x="-338" y="-299" type="line"/>
      <point x="-258" y="-299" type="line" smooth="yes"/>
      <point x="-123" y="-299"/>
      <point x="-42" y="-174"/>
      <point x="10" y="57" type="qcurve" smooth="yes"/>
      <point x="199" y="905" type="line"/>
      <point x="204" y="942" type="line"/>
      <point x="242" y="1174" type="line" smooth="yes"/>
      <point x="280" y="1403"/>
      <point x="576" y="1582"/>
      <point x="755" y="1582" type="qcurve" smooth="yes"/>
      <point x="905" y="1582"/>
      <point x="1093" y="1470"/>
      <point x="1093" y="1381" type="qcurve" smooth="yes"/>
      <point x="1093" y="1307"/>
      <point x="1017" y="1222"/>
      <point x="969" y="1222" type="qcurve" smooth="yes"/>
      <point x="931" y="1222"/>
      <point x="882" y="1247"/>
      <point x="862" y="1283" type="qcurve" smooth="yes"/>
      <point x="842" y="1320"/>
      <point x="800" y="1395"/>
      <point x="788" y="1395" type="qcurve" smooth="yes"/>
      <point x="773" y="1395"/>
      <point x="762" y="1325"/>
      <point x="745" y="1231" type="qcurve" smooth="yes"/>
      <point x="702" y="938" type="line"/>
      <point x="709" y="915" type="line"/>
      <point x="518" y="67" type="line" smooth="yes"/>
      <point x="450" y="-236"/>
      <point x="148" y="-491"/>
      <point x="-101" y="-491" type="qcurve"/>
    </contour>
    <contour>
      <point x="44" y="834" type="line"/>
      <point x="62" y="998" type="line"/>
      <point x="251" y="1040" type="line"/>
      <point x="897" y="1042" type="line"/>
      <point x="854" y="860" type="line"/>
      <point x="643" y="845" type="line"/>
      <point x="266" y="817" type="line"/>
    </contour>
  </outline>
</glyph>
<glyph name="g" format="2">
  <advance width="1346"/>
  <unicode hex="0067"/>
  <outline>
    <contour>
      <point x="33.0" y="302.0" type="qcurve" smooth="yes"/>
      <point x="48.0" y="594.0"/>
      <point x="453.0" y="1105.0"/>
      <point x="775.0" y="1105.0" type="qcurve" smooth="yes"/>
      <point x="825.0" y="1105.0"/>
      <point x="955.0" y="1064.0"/>
      <point x="970.0" y="1040.0" type="qcurve"/>
      <point x="1167.0" y="1142.0" type="line"/>
      <point x="1317.0" y="1142.0" type="line"/>
      <point x="1323.0" y="865.0" type="line"/>
      <point x="1208.0" y="444.0" type="line" smooth="yes"/>
      <point x="1172.0" y="293.0"/>
      <point x="1165.0" y="244.0"/>
      <point x="1092.0" y="-12.0" type="qcurve" smooth="yes"/>
      <point x="993.0" y="-296.0"/>
      <point x="614.0" y="-474.0"/>
      <point x="276.0" y="-464.0" type="qcurve"/>
      <point x="76.0" y="-390.0" type="line"/>
      <point x="105.0" y="-250.0" type="line"/>
      <point x="263.0" y="-262.0" type="line" smooth="yes"/>
      <point x="497.0" y="-276.0"/>
      <point x="622.0" y="-162.0"/>
      <point x="659.0" y="-11.0" type="qcurve" smooth="yes"/>
      <point x="688.0" y="98.0" type="line"/>
      <point x="658.0" y="76.0"/>
      <point x="498.0" y="-36.0"/>
      <point x="352.0" y="-36.0" type="qcurve" smooth="yes"/>
      <point x="202.0" y="-36.0"/>
      <point x="27.0" y="126.0"/>
    </contour>
    <contour>
      <point x="556.0" y="314.0" type="qcurve" smooth="yes"/>
      <point x="551.0" y="248.0"/>
      <point x="576.0" y="210.0"/>
      <point x="613.0" y="210.0" type="qcurve" smooth="yes"/>
      <point x="626.0" y="210.0"/>
      <point x="733.0" y="351.0"/>
      <point x="763.0" y="471.0" type="qcurve" smooth="yes"/>
      <point x="851.0" y="851.0" type="line"/>
      <point x="851.0" y="886.0"/>
      <point x="842.0" y="925.0"/>
      <point x="808.0" y="925.0" type="qcurve" smooth="yes"/>
      <point x="720.0" y="925.0"/>
      <point x="568.0" y="492.0"/>
    </contour>
  </outline>
</glyph>
<glyph name="h" format="2">
  <advance width="1360"/>
  <unicode hex="0068"/>
  <outline>
    <contour>
      <point x="24.0" y="-11.0" type="line"/>
      <point x="-5.0" y="38.0" type="line"/>
      <point x="138.0" y="584.0" type="line"/>
      <point x="316.0" y="1370.0" type="line"/>
      <point x="125.0" y="1420.0" type="line"/>
      <point x="164.0" y="1560.0" type="line"/>
      <point x="744.0" y="1635.0" type="line"/>
      <point x="827.0" y="1529.0" type="line"/>
      <point x="643.0" y="655.0" type="line"/>
      <point x="519.0" y="143.0" type="line"/>
      <point x="557.0" y="47.0" type="line"/>
    </contour>
    <contour>
      <point x="655.0" y="-17.0" type="line"/>
      <point x="603.0" y="107.0" type="line"/>
      <point x="770.0" y="741.0" type="line" smooth="yes"/>
      <point x="787.0" y="794.0"/>
      <point x="744.0" y="838.0"/>
      <point x="729.0" y="838.0" type="qcurve" smooth="yes"/>
      <point x="704.0" y="838.0"/>
      <point x="682.0" y="730.0"/>
      <point x="606.0" y="551.0" type="qcurve"/>
      <point x="587.0" y="734.0" type="line"/>
      <point x="709.0" y="959.0"/>
      <point x="855.0" y="1109.0"/>
      <point x="985.0" y="1109.0" type="qcurve" smooth="yes"/>
      <point x="1180.0" y="1109.0"/>
      <point x="1325.0" y="841.0"/>
      <point x="1281.0" y="673.0" type="qcurve" smooth="yes"/>
      <point x="1149.0" y="220.0" type="line"/>
      <point x="1345.0" y="204.0" type="line"/>
      <point x="1334.0" y="43.0" type="line"/>
    </contour>
  </outline>
</glyph>
<glyph name="i" format="2">
  <advance width="730"/>
  <unicode hex="0069"/>
  <outline>
    <contour>
      <point x="55.0" y="-18.0" type="line"/>
      <point x="-12.0" y="96.0" type="line"/>
      <point x="114.0" y="507.0" type="line"/>
      <point x="181.0" y="864.0" type="line"/>
      <point x="50.0" y="854.0" type="line"/>
      <point x="76.0" y="1049.0" type="line"/>
      <point x="551.0" y="1108.0" type="line"/>
      <point x="701.0" y="1074.0" type="line"/>
      <point x="731.0" y="960.0" type="line"/>
      <point x="675.0" y="778.0" type="line"/>
      <point x="532.0" y="215.0" type="line"/>
      <point x="658.0" y="184.0" type="line"/>
      <point x="649.0" y="29.0" type="line"/>
    </contour>
    <contour>
      <point x="208.0" y="1395.0" type="qcurve" smooth="yes"/>
      <point x="220.0" y="1491.0"/>
      <point x="386.0" y="1602.0"/>
      <point x="503.0" y="1602.0" type="qcurve" smooth="yes"/>
      <point x="622.0" y="1602.0"/>
      <point x="762.0" y="1484.0"/>
      <point x="749.0" y="1395.0" type="qcurve" smooth="yes"/>
      <point x="735.0" y="1302.0"/>
      <point x="568.0" y="1187.0"/>
      <point x="451.0" y="1187.0" type="qcurve" smooth="yes"/>
      <point x="342.0" y="1187.0"/>
      <point x="195.0" y="1298.0"/>
    </contour>
  </outline>
</glyph>
<glyph name="j" format="2">
  <advance width="727"/>
  <unicode hex="006A"/>
  <outline>
    <contour>
      <point x="186" y="851" type="qcurve"/>
      <point x="39" y="848" type="line"/>
      <point x="61" y="1039" type="line"/>
      <point x="494" y="1107" type="line"/>
      <point x="712" y="1094" type="line"/>
      <point x="744" y="1002" type="line"/>
      <point x="681" y="752" type="line"/>
      <point x="530" y="78" type="line"/>
      <point x="477" y="-154"/>
      <point x="232" y="-491"/>
      <point x="-143" y="-491" type="qcurve"/>
      <point x="-404" y="-432" type="line"/>
      <point x="-381" y="-298" type="line"/>
      <point x="-297" y="-298" type="line" smooth="yes"/>
      <point x="-176" y="-298"/>
      <point x="-40" y="-187"/>
      <point x="15" y="67" type="qcurve" smooth="yes"/>
      <point x="60" y="275"/>
      <point x="165" y="692"/>
    </contour>
    <contour>
      <point x="277" y="1377" type="qcurve" smooth="yes"/>
      <point x="289" y="1477"/>
      <point x="455" y="1592"/>
      <point x="572" y="1592" type="qcurve" smooth="yes"/>
      <point x="691" y="1592"/>
      <point x="831" y="1469"/>
      <point x="818" y="1377" type="qcurve" smooth="yes"/>
      <point x="804" y="1281"/>
      <point x="637" y="1162"/>
      <point x="520" y="1162" type="qcurve" smooth="yes"/>
      <point x="411" y="1162"/>
      <point x="264" y="1277"/>
    </contour>
  </outline>
</glyph>
<glyph name="k" format="2">
  <advance width="1250"/>
  <unicode hex="006B"/>
  <outline>
    <contour>
      <point x="52.0" y="-17.0" type="line"/>
      <point x="14.0" y="101.0" type="line"/>
      <point x="148.0" y="585.0" type="line"/>
      <point x="337.0" y="1339.0" type="line"/>
      <point x="145.0" y="1396.0" type="line"/>
      <point x="184.0" y="1539.0" type="line"/>
      <point x="764.0" y="1604.0" type="line"/>
      <point x="850.0" y="1497.0" type="line"/>
      <point x="682.0" y="843.0" type="line"/>
      <point x="745.0" y="958.0"/>
      <point x="958" y="1119"/>
      <point x="1082.0" y="1119.0" type="qcurve" smooth="yes"/>
      <point x="1198" y="1119"/>
      <point x="1309" y="973"/>
      <point x="1291.0" y="875.0" type="qcurve" smooth="yes"/>
      <point x="1282.0" y="821.0" type="line"/>
      <point x="1251.0" y="793.0" type="line"/>
      <point x="1006.0" y="601.0" type="line"/>
      <point x="1107.0" y="224.0" type="line"/>
      <point x="1255.0" y="204.0" type="line"/>
      <point x="1245.0" y="44.0" type="line"/>
      <point x="778.0" y="-3.0" type="line" smooth="yes"/>
      <point x="744" y="-6"/>
      <point x="700" y="10"/>
      <point x="695.0" y="42.0" type="qcurve" smooth="yes"/>
      <point x="645.0" y="366.0" type="line"/>
      <point x="452.0" y="224.0" type="line"/>
      <point x="420.0" y="340.0" type="line"/>
      <point x="901.0" y="723.0" type="line"/>
      <point x="915.0" y="776.0"/>
      <point x="892" y="807"/>
      <point x="860.0" y="807.0" type="qcurve" smooth="yes"/>
      <point x="815" y="807"/>
      <point x="692.0" y="714.0"/>
      <point x="648.0" y="633.0" type="qcurve"/>
      <point x="604.0" y="472.0" type="line"/>
      <point x="552.0" y="249.0" type="line"/>
      <point x="562.0" y="32.0" type="line"/>
    </contour>
  </outline>
</glyph>
<glyph name="l" format="2">
  <advance width="743"/>
  <unicode hex="006C"/>
  <outline>
    <contour>
      <point x="45.0" y="-8.0" type="line"/>
      <point x="-21.0" y="185.0" type="line"/>
      <point x="98.0" y="587.0" type="line"/>
      <point x="280.0" y="1340.0" type="line"/>
      <point x="93.0" y="1399.0" type="line"/>
      <point x="132.0" y="1539.0" type="line"/>
      <point x="718.0" y="1604.0" type="line"/>
      <point x="801.0" y="1499.0" type="line"/>
      <point x="588.0" y="568.0" type="line"/>
      <point x="506.0" y="221.0" type="line"/>
      <point x="699.0" y="202.0" type="line"/>
      <point x="688.0" y="39.0" type="line"/>
    </contour>
  </outline>
</glyph>
<glyph name="m" format="2">
  <advance width="2011"/>
  <unicode hex="006D"/>
  <outline>
    <contour>
      <point x="21.0" y="5.0" type="line"/>
      <point x="5.0" y="102.0" type="line"/>
      <point x="138.0" y="552.0" type="line"/>
      <point x="199.0" y="849.0" type="line"/>
      <point x="70.0" y="849.0" type="line"/>
      <point x="93.0" y="1042.0" type="line"/>
      <point x="476.0" y="1097.0" type="line"/>
      <point x="678.0" y="1097.0" type="line"/>
      <point x="708.0" y="835.0" type="line"/>
      <point x="685.0" y="687.0" type="line"/>
      <point x="552.0" y="216.0" type="line"/>
      <point x="602.0" y="55.0" type="line"/>
    </contour>
    <contour>
      <point x="713.0" y="-16.0" type="line"/>
      <point x="633.0" y="101.0" type="line"/>
      <point x="794.0" y="740.0" type="line" smooth="yes"/>
      <point x="809.0" y="793.0"/>
      <point x="767.0" y="844.0"/>
      <point x="752.0" y="844.0" type="qcurve" smooth="yes"/>
      <point x="740.0" y="844.0"/>
      <point x="710.0" y="770.0"/>
      <point x="669.0" y="649.0" type="qcurve"/>
      <point x="647.0" y="801.0" type="line"/>
      <point x="733.0" y="971.0"/>
      <point x="872.0" y="1109.0"/>
      <point x="997.0" y="1109.0" type="qcurve" smooth="yes"/>
      <point x="1207.0" y="1109.0"/>
      <point x="1324.0" y="804.0"/>
      <point x="1285.0" y="600.0" type="qcurve" smooth="yes"/>
      <point x="1182.0" y="245.0" type="line"/>
      <point x="1248.0" y="48.0" type="line"/>
    </contour>
    <contour>
      <point x="1305.0" y="5.0" type="line"/>
      <point x="1257.0" y="129.0" type="line"/>
      <point x="1412.0" y="740.0" type="line" smooth="yes"/>
      <point x="1428.0" y="793.0"/>
      <point x="1387.0" y="844.0"/>
      <point x="1372.0" y="844.0" type="qcurve" smooth="yes"/>
      <point x="1360.0" y="844.0"/>
      <point x="1330.0" y="770.0"/>
      <point x="1289.0" y="649.0" type="qcurve"/>
      <point x="1267.0" y="801.0" type="line"/>
      <point x="1358.0" y="979.0"/>
      <point x="1511.0" y="1109.0"/>
      <point x="1632.0" y="1109.0" type="qcurve" smooth="yes"/>
      <point x="1827.0" y="1109.0"/>
      <point x="1959.0" y="845.0"/>
      <point x="1925.0" y="674.0" type="qcurve" smooth="yes"/>
      <point x="1794.0" y="220.0" type="line"/>
      <point x="1989.0" y="204.0" type="line"/>
      <point x="1978.0" y="43.0" type="line"/>
    </contour>
  </outline>
</glyph>
<glyph name="o" format="2">
  <advance width="1253"/>
  <unicode hex="006F"/>
  <outline>
    <contour>
      <point x="61" y="625" type="qcurve" smooth="yes"/>
      <point x="129" y="884"/>
      <point x="546" y="1131"/>
      <point x="804" y="1119" type="qcurve" smooth="yes"/>
      <point x="1059" y="1107"/>
      <point x="1279" y="736"/>
      <point x="1206" y="478" type="qcurve" smooth="yes"/>
      <point x="1134" y="211"/>
      <point x="756" y="-41"/>
      <point x="482" y="-26" type="qcurve" smooth="yes"/>
      <point x="207" y="-11"/>
      <point x="-10" y="363"/>
    </contour>
    <contour>
      <point x="587" y="569" type="qcurve" smooth="yes"/>
      <point x="531" y="316"/>
      <point x="489" y="126"/>
      <point x="538" y="118" type="qcurve" smooth="yes"/>
      <point x="586" y="110"/>
      <point x="627" y="259"/>
      <point x="686" y="518" type="qcurve" smooth="yes"/>
      <point x="745" y="777"/>
      <point x="776" y="943"/>
      <point x="730" y="950" type="qcurve" smooth="yes"/>
      <point x="684" y="958"/>
      <point x="643" y="822"/>
    </contour>
  </outline>
</glyph>
<glyph name="p" format="2">
  <advance width="1364"/>
  <unicode hex="0070"/>
  <outline>
    <contour>
      <point x="-100" y="-389" type="line"/>
      <point x="143" y="548" type="line"/>
      <point x="202" y="856" type="line"/>
      <point x="148" y="1016" type="line"/>
      <point x="427" y="1100" type="line"/>
      <point x="614" y="1100" type="line"/>
      <point x="651" y="846" type="line"/>
      <point x="712" y="966"/>
      <point x="899" y="1112"/>
      <point x="1049" y="1112" type="qcurve" smooth="yes"/>
      <point x="1187" y="1112"/>
      <point x="1370" y="910"/>
      <point x="1355" y="718" type="qcurve" smooth="yes"/>
      <point x="1333" y="427"/>
      <point x="997" y="10"/>
      <point x="695" y="10" type="qcurve" smooth="yes"/>
      <point x="620" y="10"/>
      <point x="547" y="24"/>
      <point x="524" y="29" type="qcurve"/>
      <point x="435" y="-316" type="line"/>
      <point x="574" y="-346" type="line"/>
      <point x="538" y="-485" type="line"/>
      <point x="48" y="-514" type="line"/>
    </contour>
    <contour>
      <point x="561" y="246" type="line"/>
      <point x="551" y="196"/>
      <point x="576" y="146"/>
      <point x="602" y="146" type="qcurve" smooth="yes"/>
      <point x="648" y="146"/>
      <point x="697" y="255"/>
      <point x="822" y="738" type="qcurve" smooth="yes"/>
      <point x="836" y="792"/>
      <point x="819" y="840"/>
      <point x="787" y="840" type="qcurve" smooth="yes"/>
      <point x="754" y="840"/>
      <point x="705" y="769"/>
      <point x="683" y="714" type="qcurve"/>
      <point x="622" y="470" type="line"/>
    </contour>
  </outline>
</glyph>
<glyph name="q" format="2">
  <advance width="1316"/>
  <unicode hex="0071"/>
  <outline>
    <contour>
      <point x="2" y="288" type="qcurve" smooth="yes"/>
      <point x="20" y="619"/>
      <point x="414" y="1085"/>
      <point x="759" y="1085" type="qcurve" smooth="yes"/>
      <point x="845" y="1085"/>
      <point x="959" y="1009"/>
      <point x="976" y="975" type="qcurve"/>
      <point x="1104" y="1100" type="line"/>
      <point x="1252" y="1100" type="line"/>
      <point x="1261" y="801" type="line"/>
      <point x="1191" y="562" type="line"/>
      <point x="998" y="-316" type="line"/>
      <point x="1138" y="-342" type="line"/>
      <point x="1096" y="-481" type="line"/>
      <point x="622" y="-510" type="line"/>
      <point x="524" y="-389" type="line"/>
      <point x="646" y="159" type="line"/>
      <point x="621" y="166" type="line"/>
      <point x="563" y="80"/>
      <point x="419" y="-8"/>
      <point x="272" y="-8" type="qcurve" smooth="yes"/>
      <point x="144" y="-8"/>
      <point x="-6" y="148"/>
    </contour>
    <contour>
      <point x="508" y="315" type="qcurve" smooth="yes"/>
      <point x="491" y="251"/>
      <point x="509" y="220"/>
      <point x="543" y="220" type="qcurve" smooth="yes"/>
      <point x="574" y="220"/>
      <point x="651" y="356"/>
      <point x="699" y="522" type="qcurve" smooth="yes"/>
      <point x="797" y="862" type="line"/>
      <point x="797" y="894"/>
      <point x="801" y="939"/>
      <point x="760" y="939" type="qcurve" smooth="yes"/>
      <point x="688" y="939"/>
      <point x="604" y="667"/>
    </contour>
  </outline>
</glyph>
<glyph name="s" format="2">
  <advance width="1103"/>
  <unicode hex="0073"/>
  <outline>
    <contour>
      <point x="-19" y="223" type="qcurve" smooth="yes"/>
      <point x="-18" y="313"/>
      <point x="93" y="398"/>
      <point x="193" y="398" type="qcurve" smooth="yes"/>
      <point x="234" y="398" type="line"/>
      <point x="232" y="250" type="line" smooth="yes"/>
      <point x="231" y="201"/>
      <point x="342" y="120"/>
      <point x="448" y="120" type="qcurve" smooth="yes"/>
      <point x="550" y="120"/>
      <point x="627" y="182"/>
      <point x="632" y="219" type="qcurve" smooth="yes"/>
      <point x="637" y="261"/>
      <point x="571" y="305"/>
      <point x="399" y="373" type="qcurve" smooth="yes"/>
      <point x="219" y="444"/>
      <point x="91" y="618"/>
      <point x="97" y="765" type="qcurve" smooth="yes"/>
      <point x="105" y="936"/>
      <point x="417" y="1130"/>
      <point x="658" y="1130" type="qcurve" smooth="yes"/>
      <point x="867" y="1130"/>
      <point x="1100" y="1002"/>
      <point x="1099" y="901" type="qcurve" smooth="yes"/>
      <point x="1098" y="825"/>
      <point x="992" y="750"/>
      <point x="929" y="751" type="qcurve" smooth="yes"/>
      <point x="832" y="753" type="line"/>
      <point x="834" y="852" type="line" smooth="yes"/>
      <point x="835" y="897"/>
      <point x="757" y="964"/>
      <point x="698" y="964" type="qcurve" smooth="yes"/>
      <point x="611" y="964"/>
      <point x="526" y="925"/>
      <point x="525" y="881" type="qcurve" smooth="yes"/>
      <point x="524" y="838"/>
      <point x="578" y="786"/>
      <point x="737" y="721" type="qcurve" smooth="yes"/>
      <point x="915" y="648"/>
      <point x="1069" y="489"/>
      <point x="1064" y="349" type="qcurve" smooth="yes"/>
      <point x="1057" y="157"/>
      <point x="704" y="-31"/>
      <point x="440" y="-31" type="qcurve" smooth="yes"/>
      <point x="207" y="-31"/>
      <point x="-21" y="109"/>
    </contour>
  </outline>
</glyph>
<glyph name="t" format="2">
  <advance width="882"/>
  <unicode hex="0074"/>
  <outline>
    <contour>
      <point x="149" y="-35" type="line"/>
      <point x="20" y="119" type="line"/>
      <point x="121" y="538" type="line"/>
      <point x="175" y="821" type="line"/>
      <point x="42" y="833" type="line"/>
      <point x="62" y="994" type="line"/>
      <point x="222" y="1023"/>
      <point x="472" y="1206"/>
      <point x="521" y="1365" type="qcurve"/>
      <point x="728" y="1365" type="line"/>
      <point x="787" y="1277" type="line"/>
      <point x="614" y="510" type="line"/>
      <point x="566" y="217" type="line"/>
      <point x="786" y="206" type="line"/>
      <point x="776" y="42" type="line"/>
    </contour>
    <contour>
      <point x="589" y="840" type="line"/>
      <point x="649" y="1040" type="line"/>
      <point x="918" y="1040" type="line"/>
      <point x="873" y="861" type="line"/>
    </contour>
  </outline>
</glyph>
<glyph name="x" format="2">
  <advance width="1190"/>
  <unicode hex="0078"/>
  <outline>
    <contour>
      <point x="73" y="879" type="line"/>
      <point x="43" y="1041" type="line"/>
      <point x="524" y="1129" type="line"/>
      <point x="698" y="1089" type="line"/>
      <point x="809" y="662" type="line"/>
      <point x="945" y="184" type="line"/>
      <point x="1084" y="201" type="line"/>
      <point x="1098" y="51" type="line"/>
      <point x="581" y="-27" type="line"/>
      <point x="447" y="40" type="line"/>
      <point x="323" y="463" type="line"/>
      <point x="194" y="902" type="line"/>
    </contour>
    <contour>
      <point x="-123" y="74" type="line"/>
      <point x="-85" y="196" type="line"/>
      <point x="65" y="201" type="line" smooth="yes"/>
      <point x="122" y="204"/>
      <point x="441" y="475"/>
      <point x="557" y="630" type="qcurve" smooth="yes"/>
      <point x="744" y="870"/>
      <point x="1060" y="1130"/>
      <point x="1159" y="1130" type="qcurve" smooth="yes"/>
      <point x="1219" y="1130"/>
      <point x="1310" y="1042"/>
      <point x="1309" y="955" type="qcurve" smooth="yes"/>
      <point x="1307" y="880"/>
      <point x="1213" y="745"/>
      <point x="1155" y="733" type="qcurve"/>
      <point x="1122" y="746" type="line"/>
      <point x="1123" y="828" type="line"/>
      <point x="1123" y="837"/>
      <point x="1114" y="849"/>
      <point x="1104" y="849" type="qcurve" smooth="yes"/>
      <point x="1006" y="849"/>
      <point x="748" y="680"/>
      <point x="614" y="506" type="qcurve" smooth="yes"/>
      <point x="492" y="345"/>
      <point x="146" y="-25"/>
      <point x="38" y="-25" type="qcurve"/>
    </contour>
  </outline>
</glyph>
<glyph name="y" format="2">
  <advance width="1156"/>
  <unicode hex="0079"/>
  <outline>
    <contour>
      <point x="-290" y="-430" type="line"/>
      <point x="-266" y="-299" type="line"/>
      <point x="-78" y="-299" type="line" smooth="yes"/>
      <point x="82" y="-299"/>
      <point x="358" y="-183"/>
      <point x="459" y="-62" type="qcurve" smooth="yes"/>
      <point x="523" y="14" type="line"/>
      <point x="260" y="14" type="line"/>
      <point x="251" y="79"/>
      <point x="182" y="691"/>
      <point x="160" y="868" type="qcurve"/>
      <point x="17" y="857" type="line"/>
      <point x="21" y="1043" type="line"/>
      <point x="407" y="1100" type="line"/>
      <point x="601" y="1100" type="line"/>
      <point x="663" y="965" type="line"/>
      <point x="713" y="239" type="line"/>
      <point x="870" y="454"/>
      <point x="953" y="686"/>
      <point x="952" y="741" type="qcurve" smooth="yes"/>
      <point x="951" y="806"/>
      <point x="857" y="907"/>
      <point x="857" y="983" type="qcurve" smooth="yes"/>
      <point x="857" y="1045"/>
      <point x="935" y="1127"/>
      <point x="1013" y="1127" type="qcurve" smooth="yes"/>
      <point x="1086" y="1127"/>
      <point x="1193" y="991"/>
      <point x="1193" y="868" type="qcurve" smooth="yes"/>
      <point x="1193" y="689"/>
      <point x="875" y="224"/>
      <point x="702" y="10" type="qcurve" smooth="yes"/>
      <point x="668" y="-32" type="line" smooth="yes"/>
      <point x="530" y="-203"/>
      <point x="178" y="-488"/>
      <point x="-59" y="-488" type="qcurve"/>
    </contour>
  </outline>
</glyph>
<glyph name="z" format="2">
  <advance width="1104"/>
  <unicode hex="007A"/>
  <outline>
    <contour>
      <point x="14.0" y="-24.0" type="line"/>
      <point x="-98.0" y="106.0" type="line"/>
      <point x="24.0" y="235.0"/>
      <point x="172" y="404"/>
      <point x="283" y="532" type="qcurve" smooth="yes"/>
      <point x="373.0" y="636.0"/>
      <point x="526.0" y="806.0"/>
      <point x="596.0" y="881.0" type="qcurve"/>
      <point x="286.0" y="887.0" type="line"/>
      <point x="201.0" y="701.0" type="line"/>
      <point x="41.0" y="701.0" type="line"/>
      <point x="120.0" y="1039.0" type="line"/>
      <point x="190.0" y="1090.0" type="line"/>
      <point x="1126.0" y="1090.0" type="line"/>
      <point x="1187" y="924" type="line"/>
      <point x="1099" y="812"/>
      <point x="957" y="659"/>
      <point x="852" y="543" type="qcurve" smooth="yes"/>
      <point x="760" y="440"/>
      <point x="653" y="316"/>
      <point x="591" y="247" type="qcurve"/>
      <point x="859.0" y="241.0" type="line"/>
      <point x="958.0" y="402.0" type="line"/>
      <point x="1112.0" y="375.0" type="line"/>
      <point x="989.0" y="31.0" type="line"/>
      <point x="916.0" y="-13.0" type="line"/>
      <point x="98.0" y="45.0" type="line"/>
    </contour>
  </outline>
</glyph>
<glyph name="braceleft" format="2">
  <advance width="752"/>
  <unicode hex="007B"/>
  <outline>
    <contour>
      <point x="17.0" y="462.0" type="line"/>
      <point x="43.0" y="633.0" type="line"/>
      <point x="104.0" y="637.0" type="line" smooth="yes"/>
      <point x="158" y="641"/>
      <point x="249.0" y="667.0"/>
      <point x="260.0" y="741.0" type="qcurve" smooth="yes"/>
      <point x="276.0" y="837.0"/>
      <point x="171.0" y="1094.0"/>
      <point x="178.0" y="1204.0" type="qcurve" smooth="yes"/>
      <point x="189.0" y="1363.0"/>
      <point x="397.0" y="1510.0"/>
      <point x="557.0" y="1510.0" type="qcurve" smooth="yes"/>
      <point x="584.0" y="1510.0"/>
      <point x="835.0" y="1504.0"/>
      <point x="859.0" y="1500.0" type="qcurve"/>
      <point x="833.0" y="1349.0" type="line"/>
      <point x="791.0" y="1351.0"/>
      <point x="778.0" y="1351.0"/>
      <point x="738.0" y="1351.0" type="qcurve" smooth="yes"/>
      <point x="695.0" y="1351.0"/>
      <point x="618.0" y="1302.0"/>
      <point x="622.0" y="1228.0" type="qcurve" smooth="yes"/>
      <point x="616.0" y="1104.0"/>
      <point x="690.0" y="843.0"/>
      <point x="675.0" y="758.0" type="qcurve" smooth="yes"/>
      <point x="658.0" y="663.0"/>
      <point x="509.0" y="577.0"/>
      <point x="365.0" y="554.0" type="qcurve"/>
      <point x="507.0" y="529.0"/>
      <point x="617.0" y="408.0"/>
      <point x="602.0" y="331.0" type="qcurve" smooth="yes"/>
      <point x="583.0" y="230.0"/>
      <point x="356.0" y="-85.0"/>
      <point x="332.0" y="-204.0" type="qcurve" smooth="yes"/>
      <point x="318.0" y="-279.0"/>
      <point x="329.0" y="-331.0"/>
      <point x="396.0" y="-331.0" type="qcurve" smooth="yes"/>
      <point x="436.0" y="-331.0"/>
      <point x="457.0" y="-331.0"/>
      <point x="498.0" y="-329.0" type="qcurve"/>
      <point x="471.0" y="-482.0" type="line"/>
      <point x="440.0" y="-488.0"/>
      <point x="218.0" y="-495.0"/>
      <point x="181.0" y="-495.0" type="qcurve" smooth="yes"/>
      <point x="16.0" y="-495.0"/>
      <point x="-120.0" y="-337.0"/>
      <point x="-94.0" y="-178.0" type="qcurve" smooth="yes"/>
      <point x="-75.0" y="-60.0"/>
      <point x="163.0" y="246.0"/>
      <point x="186.0" y="364.0" type="qcurve"/>
      <point x="208.0" y="467.0" type="line"/>
    </contour>
  </outline>
</glyph>
<glyph name="bar" format="2">
  <advance width="741"/>
  <unicode hex="007C"/>
  <outline>
    <contour>
      <point x="219.0" y="-496.0" type="line"/>
      <point x="230.0" y="-8.0" type="line"/>
      <point x="224.0" y="300.0" type="line"/>
      <point x="222.0" y="880.0" type="line"/>
      <point x="223.0" y="1188.0" type="line"/>
      <point x="211.0" y="1564.0" type="line"/>
      <point x="535.0" y="1586.0" type="line"/>
      <point x="526.0" y="1188.0" type="line"/>
      <point x="526.0" y="880.0" type="line"/>
      <point x="528.0" y="300.0" type="line"/>
      <point x="515.0" y="-8.0" type="line"/>
      <point x="537.0" y="-474.0" type="line"/>
    </contour>
  </outline>
</glyph>
<glyph name="dieresis" format="2">
  <advance width="1024"/>
  <unicode hex="00A8"/>
  <outline>
    <contour>
      <point x="681.0" y="1290.0" type="qcurve" smooth="yes"/>
      <point x="681.0" y="1361.0"/>
      <point x="759.0" y="1436.0"/>
      <point x="831.0" y="1436.0" type="qcurve" smooth="yes"/>
      <point x="900.0" y="1436.0"/>
      <point x="981.0" y="1355.0"/>
      <point x="981.0" y="1290.0" type="qcurve" smooth="yes"/>
      <point x="981.0" y="1219.0"/>
      <point x="905.0" y="1143.0"/>
      <point x="831.0" y="1143.0" type="qcurve" smooth="yes"/>
      <point x="762.0" y="1143.0"/>
      <point x="681.0" y="1223.0"/>
    </contour>
    <contour>
      <point x="301.0" y="1290.0" type="qcurve" smooth="yes"/>
      <point x="301.0" y="1361.0"/>
      <point x="378.0" y="1436.0"/>
      <point x="451.0" y="1436.0" type="qcurve" smooth="yes"/>
      <point x="520.0" y="1436.0"/>
      <point x="601.0" y="1355.0"/>
      <point x="601.0" y="1290.0" type="qcurve" smooth="yes"/>
      <point x="601.0" y="1219.0"/>
      <point x="524.0" y="1143.0"/>
      <point x="451.0" y="1143.0" type="qcurve" smooth="yes"/>
      <point x="382.0" y="1143.0"/>
      <point x="301.0" y="1223.0"/>
    </contour>
  </outline>
</glyph>
<glyph name="ordfeminine" format="2">
  <advance width="1105"/>
  <unicode hex="00AA"/>
  <outline>
    <contour>
      <point x="215.0" y="847.0" type="qcurve" smooth="yes"/>
      <point x="227.0" y="1106.0"/>
      <point x="504.0" y="1476.0"/>
      <point x="754.0" y="1476.0" type="qcurve" smooth="yes"/>
      <point x="787.0" y="1476.0"/>
      <point x="848.0" y="1460.0"/>
      <point x="861.0" y="1449.0" type="qcurve"/>
      <point x="981.0" y="1477.0" type="line"/>
      <point x="1080.0" y="1477.0" type="line"/>
      <point x="1107.0" y="1283.0" type="line"/>
      <point x="1036.0" y="958.0" type="line"/>
      <point x="1026.0" y="902.0" type="line"/>
      <point x="1081.0" y="699.0" type="line"/>
      <point x="772.0" y="630.0" type="line"/>
      <point x="709.0" y="753.0" type="line"/>
      <point x="492.0" y="636.0" type="line"/>
      <point x="380.0" y="636.0"/>
      <point x="211.0" y="753.0"/>
    </contour>
    <contour>
      <point x="555.0" y="932.0" type="qcurve" smooth="yes"/>
      <point x="551.0" y="887.0"/>
      <point x="567.0" y="855.0"/>
      <point x="591.0" y="855.0" type="qcurve" smooth="yes"/>
      <point x="609.0" y="855.0"/>
      <point x="693.0" y="962.0"/>
      <point x="725.0" y="1077.0" type="qcurve" smooth="yes"/>
      <point x="778.0" y="1282.0" type="line"/>
      <point x="779.0" y="1306.0"/>
      <point x="764.0" y="1333.0"/>
      <point x="740.0" y="1333.0" type="qcurve" smooth="yes"/>
      <point x="682.0" y="1333.0"/>
      <point x="565.0" y="1041.0"/>
    </contour>
  </outline>
</glyph>
<glyph name="macron" format="2">
  <advance width="1024"/>
  <unicode hex="00AF"/>
  <outline>
    <contour>
      <point x="317.0" y="1252.0" type="line"/>
      <point x="354.0" y="1448.0" type="line"/>
      <point x="986.0" y="1448.0" type="line"/>
      <point x="952.0" y="1252.0" type="line"/>
    </contour>
  </outline>
</glyph>
<glyph name="plusminus" format="2">
  <advance width="889"/>
  <unicode hex="00B1"/>
  <outline>
    <contour>
      <point x="64.0" y="615.0" type="line"/>
      <point x="64.0" y="889.0" type="line"/>
      <point x="824.0" y="889.0" type="line"/>
      <point x="824.0" y="615.0" type="line"/>
    </contour>
    <contour>
      <point x="304.0" y="374.0" type="line"/>
      <point x="304.0" y="1112.0" type="line"/>
      <point x="584.0" y="1112.0" type="line"/>
      <point x="584.0" y="374.0" type="line"/>
    </contour>
    <contour>
      <point x="64.0" y="20.0" type="line"/>
      <point x="64.0" y="271.0" type="line"/>
      <point x="824.0" y="271.0" type="line"/>
      <point x="824.0" y="20.0" type="line"/>
    </contour>
  </outline>
</glyph>
<glyph name="acute" format="2">
  <advance width="1024"/>
  <unicode hex="00B4"/>
  <outline>
    <contour>
      <point x="443.0" y="1247.0" type="line"/>
      <point x="546.0" y="1147.0" type="line"/>
      <point x="855.0" y="1353.0" type="line" smooth="yes"/>
      <point x="901.0" y="1383.0"/>
      <point x="940.0" y="1468.0"/>
      <point x="937.0" y="1508.0" type="qcurve" smooth="yes"/>
      <point x="934.0" y="1560.0"/>
      <point x="845.0" y="1628.0"/>
      <point x="798.0" y="1625.0" type="qcurve" smooth="yes"/>
      <point x="752.0" y="1621.0"/>
      <point x="666.0" y="1529.0"/>
      <point x="625.0" y="1478.0" type="qcurve" smooth="yes"/>
    </contour>
  </outline>
</glyph>
<glyph name="micro" format="2">
  <advance width="1337"/>
  <unicode hex="00B5"/>
  <outline>
    <contour>
      <point x="-95.0" y="-301.0" type="line"/>
      <point x="-55.0" y="-263.0" type="line"/>
      <point x="-18.75" y="-121.0"/>
      <point x="45.0" y="179.0"/>
      <point x="65.0" y="267.0" type="qcurve" smooth="yes"/>
      <point x="193.0" y="848.0" type="line"/>
      <point x="46.0" y="844.0" type="line"/>
      <point x="54.0" y="1030.0" type="line"/>
      <point x="477.0" y="1096.0" type="line"/>
      <point x="659.0" y="1096.0" type="line"/>
      <point x="731.0" y="966.0" type="line"/>
      <point x="618.0" y="424.0" type="line" smooth="yes"/>
      <point x="600.0" y="330.0"/>
      <point x="615.0" y="194.0"/>
      <point x="668.0" y="194.0" type="qcurve" smooth="yes"/>
      <point x="670.0" y="194.0"/>
      <point x="604.0" y="144.0"/>
      <point x="649.0" y="176.0" type="qcurve"/>
      <point x="826.0" y="960.0" type="line"/>
      <point x="794.0" y="1078.0" type="line"/>
      <point x="1318.0" y="1108.0" type="line"/>
      <point x="1362.0" y="994.0" type="line"/>
      <point x="1195.0" y="348.0" type="line"/>
      <point x="1187.0" y="203.0" type="line"/>
      <point x="1328.0" y="203.0" type="line"/>
      <point x="1324.0" y="37.0" type="line"/>
      <point x="756.0" y="-31.0" type="line"/>
      <point x="669.0" y="63.0" type="line"/>
      <point x="656.0" y="28.0" type="line"/>
      <point x="621.0" y="-13.0"/>
      <point x="633.0" y="-33.0"/>
      <point x="593.0" y="-33.0" type="qcurve" smooth="yes"/>
      <point x="562.0" y="-33.0"/>
      <point x="504.0" y="-27.0"/>
      <point x="480.0" y="-11.0" type="qcurve"/>
      <point x="443.0" y="-191.0" type="line"/>
      <point x="529.0" y="-199.0" type="line"/>
      <point x="521.0" y="-361.0" type="line"/>
      <point x="-70.0" y="-403.0" type="line"/>
    </contour>
  </outline>
</glyph>
<glyph name="questiondown" format="2">
  <advance width="1204"/>
  <unicode hex="00BF"/>
  <outline>
    <contour>
      <point x="1076.0" y="303.0" type="qcurve" smooth="yes"/>
      <point x="1063.0" y="179.0"/>
      <point x="801.0" y="21.0"/>
      <point x="600.0" y="21.0" type="qcurve" smooth="yes"/>
      <point x="354.0" y="21.0"/>
      <point x="131.0" y="235.0"/>
      <point x="143.0" y="414.0" type="qcurve" smooth="yes"/>
      <point x="155.0" y="588.0"/>
      <point x="361.0" y="774.0"/>
      <point x="447.0" y="775.0" type="qcurve" smooth="yes"/>
      <point x="598.0" y="826.0"/>
      <point x="759.0" y="882.0"/>
      <point x="778.0" y="963.0" type="qcurve" smooth="yes"/>
      <point x="771.0" y="968.0" type="line"/>
      <point x="951.0" y="968.0" type="line"/>
      <point x="959.0" y="926.0" type="line" smooth="yes"/>
      <point x="963.0" y="797.0"/>
      <point x="847.0" y="638.0"/>
      <point x="731.0" y="573.0" type="qcurve" smooth="yes"/>
      <point x="660.0" y="532.0"/>
      <point x="614.0" y="469.0"/>
      <point x="603.0" y="374.0" type="qcurve" smooth="yes"/>
      <point x="593.0" y="285.0"/>
      <point x="662.0" y="222.0"/>
      <point x="702.0" y="222.0" type="qcurve" smooth="yes"/>
      <point x="775.0" y="222.0"/>
      <point x="837.0" y="211.0"/>
      <point x="847.0" y="265.0" type="qcurve" smooth="yes"/>
      <point x="854.0" y="302.0"/>
      <point x="777.0" y="375.0"/>
      <point x="778.0" y="443.0" type="qcurve" smooth="yes"/>
      <point x="779.0" y="495.0"/>
      <point x="855.0" y="578.0"/>
      <point x="930.0" y="578.0" type="qcurve" smooth="yes"/>
      <point x="1000.0" y="578.0"/>
      <point x="1096.0" y="445.0"/>
    </contour>
    <contour>
      <point x="1145.0" y="1320.0" type="qcurve" smooth="yes"/>
      <point x="1145.0" y="1234.0"/>
      <point x="1019.0" y="1105.0"/>
      <point x="919.0" y="1105.0" type="qcurve" smooth="yes"/>
      <point x="819.0" y="1105.0"/>
      <point x="693.0" y="1234.0"/>
      <point x="693.0" y="1320.0" type="qcurve" smooth="yes"/>
      <point x="693.0" y="1403.0"/>
      <point x="819.0" y="1530.0"/>
      <point x="919.0" y="1530.0" type="qcurve" smooth="yes"/>
      <point x="1019.0" y="1530.0"/>
      <point x="1145.0" y="1403.0"/>
    </contour>
  </outline>
</glyph>
<glyph name="germandbls" format="2">
  <advance width="1549"/>
  <unicode hex="00DF"/>
  <outline>
    <contour>
      <point x="106.0" y="182.0" type="qcurve"/>
      <point x="281.0" y="1209.0" type="line" smooth="yes"/>
      <point x="305.0" y="1346.0"/>
      <point x="508.0" y="1597.0"/>
      <point x="761.0" y="1597.0" type="qcurve" smooth="yes"/>
      <point x="930.0" y="1597.0"/>
      <point x="1116.0" y="1425.0"/>
      <point x="1122.0" y="1305.0" type="qcurve" smooth="yes"/>
      <point x="1127.0" y="1207.0"/>
      <point x="1127.0" y="1140.0"/>
      <point x="1039.0" y="1049.0" type="qcurve" smooth="yes"/>
      <point x="1010.0" y="998.0"/>
      <point x="1009.0" y="948.0"/>
      <point x="1009.0" y="937.0" type="qcurve" smooth="yes"/>
      <point x="1009.0" y="888.0"/>
      <point x="1118.0" y="833.0"/>
      <point x="1251.0" y="757.0" type="qcurve" smooth="yes"/>
      <point x="1416.0" y="662.0"/>
      <point x="1535.0" y="461.0"/>
      <point x="1531.0" y="342.0" type="qcurve" smooth="yes"/>
      <point x="1526.0" y="163.0"/>
      <point x="1262.0" y="-50.0"/>
      <point x="1069.0" y="-50.0" type="qcurve" smooth="yes"/>
      <point x="864.0" y="-50.0"/>
      <point x="675.0" y="63.0"/>
      <point x="673.0" y="179.0" type="qcurve" smooth="yes"/>
      <point x="672.0" y="260.0"/>
      <point x="760.0" y="393.0"/>
      <point x="841.0" y="393.0" type="qcurve" smooth="yes"/>
      <point x="881.0" y="368.0" type="line"/>
      <point x="884.0" y="262.0" type="line" smooth="yes"/>
      <point x="884.0" y="217.0"/>
      <point x="991.0" y="154.0"/>
      <point x="1040.0" y="154.0" type="qcurve" smooth="yes"/>
      <point x="1098.0" y="154.0"/>
      <point x="1142.0" y="184.0"/>
      <point x="1148.0" y="212.0" type="qcurve" smooth="yes"/>
      <point x="1154.0" y="248.0"/>
      <point x="1145.0" y="274.0"/>
      <point x="981.0" y="375.0" type="qcurve" smooth="yes"/>
      <point x="831.0" y="473.0"/>
      <point x="671.0" y="633.0"/>
      <point x="675.0" y="765.0" type="qcurve" smooth="yes"/>
      <point x="677.0" y="836.0"/>
      <point x="693.0" y="1014.0"/>
      <point x="777.0" y="1115.0" type="qcurve" smooth="yes"/>
      <point x="845.0" y="1202.0"/>
      <point x="895.0" y="1244.0"/>
      <point x="895.0" y="1301.0" type="qcurve" smooth="yes"/>
      <point x="895.0" y="1352.0"/>
      <point x="857.0" y="1405.0"/>
      <point x="833.0" y="1405.0" type="qcurve" smooth="yes"/>
      <point x="815.0" y="1405.0"/>
      <point x="794.0" y="1369.0"/>
      <point x="788.0" y="1332.0" type="qcurve" smooth="yes"/>
      <point x="602.0" y="173.0" type="line" smooth="yes"/>
      <point x="522.0" y="-327.0"/>
      <point x="190.0" y="-472.0"/>
      <point x="-26.0" y="-472.0" type="qcurve"/>
      <point x="-295.0" y="-419.0" type="line"/>
      <point x="-250.0" y="-266.0" type="line"/>
      <point x="-161.0" y="-276.0" type="line"/>
      <point x="-33.0" y="-274.0"/>
      <point x="50.0" y="-152.0"/>
    </contour>
  </outline>
</glyph>
<glyph name="ae" format="2">
  <advance width="1867"/>
  <unicode hex="00E6"/>
  <outline>
    <contour>
      <point x="548.0" y="372.0" type="qcurve" smooth="yes"/>
      <point x="543.0" y="294.0"/>
      <point x="564.0" y="243.0"/>
      <point x="594.0" y="243.0" type="qcurve" smooth="yes"/>
      <point x="619.0" y="243.0"/>
      <point x="776.0" y="310.0"/>
      <point x="818.0" y="531.0" type="qcurve" smooth="yes"/>
      <point x="865.0" y="804.0" type="line"/>
      <point x="865.0" y="835.0"/>
      <point x="843.0" y="897.0"/>
      <point x="787.0" y="897.0" type="qcurve" smooth="yes"/>
      <point x="716.0" y="897.0"/>
      <point x="560.0" y="503.0"/>
    </contour>
    <contour>
      <point x="30.0" y="309.0" type="qcurve" smooth="yes"/>
      <point x="45.0" y="626.0"/>
      <point x="467.0" y="1100.0"/>
      <point x="794.0" y="1100.0" type="qcurve" smooth="yes"/>
      <point x="839.0" y="1100.0"/>
      <point x="942.0" y="1079.0"/>
      <point x="960.0" y="1062.0" type="qcurve"/>
      <point x="1122.0" y="1141.0" type="line"/>
      <point x="1227.0" y="1141.0" type="line"/>
      <point x="1254.0" y="1070.0" type="line"/>
      <point x="1330.0" y="1082.0"/>
      <point x="1486.0" y="1103.0"/>
      <point x="1527.0" y="1103.0" type="qcurve" smooth="yes"/>
      <point x="1669.0" y="1103.0"/>
      <point x="1830.0" y="990.0"/>
      <point x="1844.0" y="870.0" type="qcurve" smooth="yes"/>
      <point x="1848.0" y="829.0"/>
      <point x="1834.0" y="715.0"/>
      <point x="1822.0" y="682.0" type="qcurve"/>
      <point x="1885.0" y="656.0" type="line"/>
      <point x="1842.0" y="478.0" type="line"/>
      <point x="1784.0" y="484.0"/>
      <point x="1624.0" y="491.0"/>
      <point x="1567.0" y="492.0" type="qcurve" smooth="yes"/>
      <point x="1232.0" y="490.0" type="line"/>
      <point x="1241.0" y="664.0" type="line"/>
      <point x="1574.0" y="673.0" type="line"/>
      <point x="1585.0" y="703.0"/>
      <point x="1590.0" y="744.0"/>
      <point x="1597.0" y="790.0" type="qcurve" smooth="yes"/>
      <point x="1602.0" y="851.0"/>
      <point x="1530.0" y="925.0"/>
      <point x="1475.0" y="925.0" type="qcurve" smooth="yes"/>
      <point x="1396.0" y="925.0"/>
      <point x="1349.0" y="731.0"/>
      <point x="1299.0" y="520.0" type="qcurve" smooth="yes"/>
      <point x="1251.0" y="325.0"/>
      <point x="1312.0" y="190.0"/>
      <point x="1396.0" y="190.0" type="qcurve" smooth="yes"/>
      <point x="1470.0" y="192.0"/>
      <point x="1608.0" y="297.0"/>
      <point x="1620.0" y="345.0" type="qcurve"/>
      <point x="1753.0" y="318.0" type="line"/>
      <point x="1760.0" y="229.0" type="line"/>
      <point x="1690.0" y="109.0"/>
      <point x="1397.0" y="-30.0"/>
      <point x="1227.0" y="-21.0" type="qcurve" smooth="yes"/>
      <point x="1050.0" y="-13.0"/>
      <point x="879.0" y="26.0"/>
      <point x="839.0" y="202.0" type="qcurve"/>
      <point x="722.0" y="98.0"/>
      <point x="468.0" y="-18.0"/>
      <point x="330.0" y="-18.0" type="qcurve" smooth="yes"/>
      <point x="177.0" y="-18.0"/>
      <point x="24.0" y="148.0"/>
    </contour>
  </outline>
</glyph>
<glyph name="thorn" format="2">
  <advance width="1377"/>
  <unicode hex="00FE"/>
  <outline>
    <contour>
      <point x="-157.0" y="-365.0" type="line"/>
      <point x="137.0" y="790.0" type="line"/>
      <point x="285.0" y="1334.0" type="line"/>
      <point x="109.0" y="1394.0" type="line"/>
      <point x="148.0" y="1532.0" type="line"/>
      <point x="720.0" y="1600.0" type="line"/>
      <point x="800.0" y="1499.0" type="line"/>
      <point x="646.0" y="887.0" type="line"/>
      <point x="719.0" y="997.0"/>
      <point x="897.0" y="1120.0"/>
      <point x="1093.0" y="1120.0" type="qcurve" smooth="yes"/>
      <point x="1184.0" y="1120.0"/>
      <point x="1339.0" y="959.0"/>
      <point x="1333.0" y="801.0" type="qcurve" smooth="yes"/>
      <point x="1315.0" y="426.0"/>
      <point x="918.0" y="-8.0"/>
      <point x="589.0" y="-8.0" type="qcurve" smooth="yes"/>
      <point x="519.0" y="-8.0"/>
      <point x="465.0" y="1.0"/>
      <point x="442.0" y="11.0" type="qcurve"/>
      <point x="388.0" y="-292.0" type="line"/>
      <point x="517.0" y="-322.0" type="line"/>
      <point x="481.0" y="-461.0" type="line"/>
      <point x="-9.0" y="-490.0" type="line"/>
    </contour>
    <contour>
      <point x="498.0" y="215.0" type="line"/>
      <point x="488.0" y="165.0"/>
      <point x="490.0" y="115.0"/>
      <point x="509.0" y="115.0" type="qcurve" smooth="yes"/>
      <point x="570.0" y="115.0"/>
      <point x="757.0" y="483.0"/>
      <point x="773.0" y="698.0" type="qcurve" smooth="yes"/>
      <point x="778.0" y="763.0"/>
      <point x="744.0" y="820.0"/>
      <point x="732.0" y="820.0" type="qcurve" smooth="yes"/>
      <point x="709.0" y="818.0"/>
      <point x="645.0" y="744.0"/>
      <point x="622.0" y="697.0" type="qcurve"/>
      <point x="553.0" y="466.0" type="line"/>
    </contour>
  </outline>
</glyph>
<glyph name="schwa" format="2">
  <advance width="1141"/>
  <unicode hex="0259"/>
  <outline>
    <contour>
      <point x="1055.0" y="525.0" type="qcurve" smooth="yes"/>
      <point x="998.0" y="255.0"/>
      <point x="621.0" y="-19.0"/>
      <point x="320.0" y="-19.0" type="qcurve" smooth="yes"/>
      <point x="172.0" y="-19.0"/>
      <point x="31.0" y="52.0"/>
      <point x="21.0" y="39.0" type="qcurve" smooth="yes"/>
      <point x="13.0" y="122.0"/>
      <point x="26.0" y="316.0"/>
      <point x="48.0" y="402.0" type="qcurve" smooth="yes"/>
      <point x="11.0" y="463.0" type="line"/>
      <point x="68.0" y="606.0" type="line"/>
      <point x="126.0" y="600.0"/>
      <point x="211.0" y="593.0"/>
      <point x="268.0" y="592.0" type="qcurve" smooth="yes"/>
      <point x="603.0" y="594.0" type="line"/>
      <point x="590.0" y="420.0" type="line"/>
      <point x="305.0" y="411.0" type="line"/>
      <point x="290.0" y="377.0"/>
      <point x="261.0" y="268.0"/>
      <point x="266.0" y="194.0" type="qcurve" smooth="yes"/>
      <point x="271.0" y="177.0"/>
      <point x="321.0" y="159.0"/>
      <point x="356.0" y="159.0" type="qcurve" smooth="yes"/>
      <point x="435.0" y="159.0"/>
      <point x="480.0" y="361.0"/>
      <point x="534.0" y="564.0" type="qcurve" smooth="yes"/>
      <point x="589.0" y="759.0"/>
      <point x="537.0" y="902.0"/>
      <point x="451.0" y="902.0" type="qcurve" smooth="yes"/>
      <point x="379.0" y="900.0"/>
      <point x="239.0" y="795.0"/>
      <point x="221.0" y="747.0" type="qcurve"/>
      <point x="90.0" y="774.0" type="line"/>
      <point x="85.0" y="863.0" type="line"/>
      <point x="159.0" y="983.0"/>
      <point x="436.0" y="1108.0"/>
      <point x="606.0" y="1113.0" type="qcurve" smooth="yes"/>
      <point x="926.0" y="1116.0"/>
      <point x="1124.0" y="826.0"/>
    </contour>
  </outline>
</glyph>
<glyph name="apostrophemod" format="2">
  <advance width="550"/>
  <unicode hex="02BC"/>
  <outline>
    <contour>
      <point x="183.0" y="899.0" type="line"/>
      <point x="258.0" y="946.0"/>
      <point x="385.0" y="1054.0"/>
      <point x="412.0" y="1116.0" type="qcurve"/>
      <point x="299.0" y="1116.0"/>
      <point x="182.0" y="1231.0"/>
      <point x="182.0" y="1320.0" type="qcurve" smooth="yes"/>
      <point x="182.0" y="1407.0"/>
      <point x="323.0" y="1536.0"/>
      <point x="421.0" y="1536.0" type="qcurve" smooth="yes"/>
      <point x="520.0" y="1536.0"/>
      <point x="648.0" y="1418.0"/>
      <point x="648.0" y="1291.0" type="qcurve" smooth="yes"/>
      <point x="648.0" y="1148.0"/>
      <point x="446.0" y="888.0"/>
      <point x="270.0" y="793.0" type="qcurve"/>
    </contour>
  </outline>
</glyph>
<glyph name="circumflex" format="2">
  <advance width="1024"/>
  <unicode hex="02C6"/>
  <outline>
    <contour>
      <point x="714.0" y="1603.0" type="qcurve" smooth="yes"/>
      <point x="753.0" y="1603.0"/>
      <point x="811.0" y="1564.0"/>
      <point x="842.0" y="1508.0" type="qcurve" smooth="yes"/>
      <point x="1018.0" y="1253.0" type="line"/>
      <point x="898.0" y="1155.0" type="line"/>
      <point x="674.0" y="1362.0" type="line"/>
      <point x="357.0" y="1155.0" type="line"/>
      <point x="272.0" y="1251.0" type="line"/>
      <point x="549.0" y="1508.0" type="line" smooth="yes"/>
      <point x="608.0" y="1564.0"/>
      <point x="674.0" y="1603.0"/>
    </contour>
  </outline>
</glyph>
<glyph name="ring" format="2">
  <advance width="1024"/>
  <unicode hex="02DA"/>
  <outline>
    <contour>
      <point x="344.0" y="1434.0" type="qcurve" smooth="yes"/>
      <point x="344.0" y="1540.0"/>
      <point x="506.0" y="1691.0"/>
      <point x="618.0" y="1691.0" type="qcurve" smooth="yes"/>
      <point x="731.0" y="1691.0"/>
      <point x="892.0" y="1540.0"/>
      <point x="892.0" y="1434.0" type="qcurve" smooth="yes"/>
      <point x="892.0" y="1328.0"/>
      <point x="731.0" y="1177.0"/>
      <point x="618.0" y="1177.0" type="qcurve" smooth="yes"/>
      <point x="506.0" y="1177.0"/>
      <point x="344.0" y="1328.0"/>
    </contour>
    <contour>
      <point x="503.0" y="1434.0" type="qcurve" smooth="yes"/>
      <point x="503.0" y="1386.0"/>
      <point x="568.0" y="1322.0"/>
      <point x="618.0" y="1322.0" type="qcurve" smooth="yes"/>
      <point x="668.0" y="1322.0"/>
      <point x="733.0" y="1383.0"/>
      <point x="733.0" y="1434.0" type="qcurve" smooth="yes"/>
      <point x="733.0" y="1482.0"/>
      <point x="668.0" y="1547.0"/>
      <point x="618.0" y="1547.0" type="qcurve" smooth="yes"/>
      <point x="566.0" y="1547.0"/>
      <point x="503.0" y="1484.0"/>
    </contour>
  </outline>
</glyph>
<glyph name="ogonek" format="2">
  <advance width="1024"/>
  <unicode hex="02DB"/>
  <outline>
    <contour>
      <point x="367.0" y="-218.0" type="qcurve" smooth="yes"/>
      <point x="361.0" y="-264.0"/>
      <point x="425.0" y="-315.0"/>
      <point x="475.0" y="-315.0" type="qcurve" smooth="yes"/>
      <point x="531.0" y="-315.0"/>
      <point x="610.0" y="-290.0"/>
      <point x="664.0" y="-253.0" type="qcurve"/>
      <point x="707.0" y="-331.0" type="line"/>
      <point x="667.0" y="-370.0"/>
      <point x="489.0" y="-451.0"/>
      <point x="382.0" y="-451.0" type="qcurve" smooth="yes"/>
      <point x="265.0" y="-451.0"/>
      <point x="141.0" y="-362.0"/>
      <point x="153.0" y="-280.0" type="qcurve" smooth="yes"/>
      <point x="166.0" y="-185.0"/>
      <point x="310.0" y="-44.0"/>
      <point x="404.0" y="18.0" type="qcurve" smooth="yes"/>
      <point x="428.0" y="34.0" type="line"/>
      <point x="507.0" y="-15.0" type="line"/>
      <point x="492.0" y="-29.0" type="line" smooth="yes"/>
      <point x="418.0" y="-96.0"/>
      <point x="372.0" y="-175.0"/>
    </contour>
  </outline>
</glyph>
<glyph name="tilde" format="2">
  <advance width="1024"/>
  <unicode hex="02DC"/>
  <outline>
    <contour>
      <point x="267.0" y="1339.0" type="line"/>
      <point x="313.0" y="1410.0"/>
      <point x="455.0" y="1525.0"/>
      <point x="535.0" y="1525.0" type="qcurve" smooth="yes"/>
      <point x="574.0" y="1525.0"/>
      <point x="638.0" y="1504.0"/>
      <point x="674.0" y="1480.0" type="qcurve" smooth="yes"/>
      <point x="702.0" y="1461.0"/>
      <point x="771.0" y="1418.0"/>
      <point x="812.0" y="1418.0" type="qcurve" smooth="yes"/>
      <point x="851.0" y="1418.0"/>
      <point x="934.0" y="1464.0"/>
      <point x="961.0" y="1499.0" type="qcurve"/>
      <point x="1005.0" y="1393.0" type="line"/>
      <point x="950.0" y="1311.0"/>
      <point x="821.0" y="1211.0"/>
      <point x="757.0" y="1211.0" type="qcurve" smooth="yes"/>
      <point x="712.0" y="1211.0"/>
      <point x="626.0" y="1257.0"/>
      <point x="601.0" y="1273.0" type="qcurve" smooth="yes"/>
      <point x="567.0" y="1294.0"/>
      <point x="510.0" y="1324.0"/>
      <point x="482.0" y="1324.0" type="qcurve" smooth="yes"/>
      <point x="435.0" y="1324.0"/>
      <point x="338.0" y="1260.0"/>
      <point x="315.0" y="1234.0" type="qcurve"/>
    </contour>
  </outline>
</glyph>
<glyph name="Germandbls" format="2">
  <advance width="1773"/>
  <unicode hex="1E9E"/>
  <outline>
    <contour>
      <point x="673.0" y="-279.0" type="line"/>
      <point x="660.0" y="-448.0" type="line"/>
      <point x="-55.0" y="-448.0" type="line"/>
      <point x="-34.0" y="-279.0" type="line"/>
      <point x="46.0" y="-266.0" type="line"/>
      <point x="236.0" y="699.0" type="line"/>
      <point x="308.0" y="1077.0" type="line" smooth="yes"/>
      <point x="345.0" y="1270.0"/>
      <point x="731.0" y="1548.0"/>
      <point x="1150.0" y="1548.0" type="qcurve" smooth="yes"/>
      <point x="1246.0" y="1548.0"/>
      <point x="1345.0" y="1535.0"/>
      <point x="1422.0" y="1515.0" type="qcurve" smooth="yes"/>
      <point x="1490.0" y="1500.0" type="line"/>
      <point x="1522.0" y="1327.0" type="line"/>
      <point x="1482.0" y="1333.0"/>
      <point x="1336.0" y="1271.0"/>
      <point x="1332.0" y="1162.0" type="qcurve" smooth="yes"/>
      <point x="1329.0" y="1108.0"/>
      <point x="1385.0" y="1001.0"/>
      <point x="1458.0" y="952.0" type="qcurve" smooth="yes"/>
      <point x="1602.0" y="850.0"/>
      <point x="1749.0" y="603.0"/>
      <point x="1741.0" y="445.0" type="qcurve" smooth="yes"/>
      <point x="1731.0" y="221.0"/>
      <point x="1430.0" y="-17.0"/>
      <point x="1241.0" y="-17.0" type="qcurve" smooth="yes"/>
      <point x="1087.0" y="-17.0"/>
      <point x="954.0" y="12.0"/>
      <point x="934.0" y="46.0" type="qcurve"/>
      <point x="929.0" y="-31.0" type="line"/>
      <point x="759.0" y="-3.0" type="line"/>
      <point x="825.0" y="498.0" type="line"/>
      <point x="1017.0" y="498.0" type="line"/>
      <point x="1009.0" y="371.0" type="line" smooth="yes"/>
      <point x="1003.0" y="271.0"/>
      <point x="1132.0" y="181.0"/>
      <point x="1141.0" y="181.0" type="qcurve" smooth="yes"/>
      <point x="1229.0" y="181.0"/>
      <point x="1299.0" y="272.0"/>
      <point x="1299.0" y="362.0" type="qcurve" smooth="yes"/>
      <point x="1299.0" y="456.0"/>
      <point x="1125.0" y="574.0"/>
      <point x="1047.0" y="651.0" type="qcurve" smooth="yes"/>
      <point x="978.0" y="717.0"/>
      <point x="876.0" y="884.0"/>
      <point x="889.0" y="1017.0" type="qcurve" smooth="yes"/>
      <point x="897.0" y="1124.0"/>
      <point x="1079.0" y="1334.0"/>
      <point x="1251.0" y="1364.0" type="qcurve"/>
      <point x="1097.0" y="1376.0"/>
      <point x="905.0" y="1252.0"/>
      <point x="872.0" y="1086.0" type="qcurve" smooth="yes"/>
      <point x="807.0" y="760.0" type="line"/>
      <point x="611.0" y="-261.0" type="line"/>
    </contour>
  </outline>
</glyph>
<glyph name="quoteleft" format="2">
  <advance width="550"/>
  <unicode hex="2018"/>
  <outline>
    <contour>
      <point x="645.0" y="1434.0" type="line"/>
      <point x="570.0" y="1387.0"/>
      <point x="443.0" y="1279.0"/>
      <point x="416.0" y="1217.0" type="qcurve"/>
      <point x="529.0" y="1217.0"/>
      <point x="646.0" y="1102.0"/>
      <point x="646.0" y="1013.0" type="qcurve" smooth="yes"/>
      <point x="646.0" y="926.0"/>
      <point x="505.0" y="797.0"/>
      <point x="407.0" y="797.0" type="qcurve" smooth="yes"/>
      <point x="308.0" y="797.0"/>
      <point x="180.0" y="915.0"/>
      <point x="180.0" y="1042.0" type="qcurve" smooth="yes"/>
      <point x="180.0" y="1185.0"/>
      <point x="382.0" y="1445.0"/>
      <point x="558.0" y="1540.0" type="qcurve"/>
    </contour>
  </outline>
</glyph>
<glyph name="quotesinglbase" format="2">
  <advance width="550"/>
  <unicode hex="201A"/>
  <outline>
    <contour>
      <point x="16.0" y="-189.0" type="line"/>
      <point x="91.0" y="-142.0"/>
      <point x="218.0" y="-34.0"/>
      <point x="245.0" y="28.0" type="qcurve"/>
      <point x="132.0" y="28.0"/>
      <point x="15.0" y="143.0"/>
      <point x="15.0" y="232.0" type="qcurve" smooth="yes"/>
      <point x="15.0" y="319.0"/>
      <point x="156.0" y="448.0"/>
      <point x="254.0" y="448.0" type="qcurve" smooth="yes"/>
      <point x="353.0" y="448.0"/>
      <point x="481.0" y="330.0"/>
      <point x="481.0" y="203.0" type="qcurve" smooth="yes"/>
      <point x="481.0" y="60.0"/>
      <point x="279.0" y="-200.0"/>
      <point x="103.0" y="-295.0" type="qcurve"/>
    </contour>
  </outline>
</glyph>
<glyph name="quotedblbase" format="2">
  <advance width="996"/>
  <unicode hex="201E"/>
  <outline>
    <contour>
      <point x="525.0" y="-230.0" type="line"/>
      <point x="600.0" y="-183.0"/>
      <point x="727.0" y="-75.0"/>
      <point x="754.0" y="-13.0" type="qcurve"/>
      <point x="641.0" y="-13.0"/>
      <point x="524.0" y="102.0"/>
      <point x="524.0" y="191.0" type="qcurve" smooth="yes"/>
      <point x="524.0" y="278.0"/>
      <point x="665.0" y="407.0"/>
      <point x="763.0" y="407.0" type="qcurve" smooth="yes"/>
      <point x="862.0" y="407.0"/>
      <point x="990.0" y="289.0"/>
      <point x="990.0" y="162.0" type="qcurve" smooth="yes"/>
      <point x="990.0" y="19.0"/>
      <point x="788.0" y="-241.0"/>
      <point x="612.0" y="-336.0" type="qcurve"/>
    </contour>
    <contour>
      <point x="-18.0" y="-230.0" type="line"/>
      <point x="57.0" y="-183.0"/>
      <point x="184.0" y="-75.0"/>
      <point x="211.0" y="-13.0" type="qcurve"/>
      <point x="98.0" y="-13.0"/>
      <point x="-19.0" y="102.0"/>
      <point x="-19.0" y="191.0" type="qcurve" smooth="yes"/>
      <point x="-19.0" y="278.0"/>
      <point x="122.0" y="407.0"/>
      <point x="220.0" y="407.0" type="qcurve" smooth="yes"/>
      <point x="319.0" y="407.0"/>
      <point x="447.0" y="289.0"/>
      <point x="447.0" y="162.0" type="qcurve" smooth="yes"/>
      <point x="447.0" y="19.0"/>
      <point x="245.0" y="-241.0"/>
      <point x="69.0" y="-336.0" type="qcurve"/>
    </contour>
  </outline>
</glyph>
<glyph name="bullet" format="2">
  <advance width="850"/>
  <unicode hex="2022"/>
  <outline>
    <contour>
      <point x="100.0" y="803.0" type="qcurve" smooth="yes"/>
      <point x="100.0" y="937.0"/>
      <point x="286.0" y="1134.0"/>
      <point x="431.0" y="1134.0" type="qcurve" smooth="yes"/>
      <point x="576.0" y="1134.0"/>
      <point x="762.0" y="937.0"/>
      <point x="762.0" y="803.0" type="qcurve" smooth="yes"/>
      <point x="762.0" y="672.0"/>
      <point x="576.0" y="474.0"/>
      <point x="431.0" y="474.0" type="qcurve" smooth="yes"/>
      <point x="286.0" y="474.0"/>
      <point x="100.0" y="672.0"/>
    </contour>
  </outline>
</glyph>
<glyph name="won" format="2">
  <advance width="1602"/>
  <unicode hex="20A9"/>
  <outline>
    <contour>
      <point x="1474.0" y="575.0" type="line"/>
      <point x="1212.0" y="575.0" type="line"/>
      <point x="1222.0" y="601.0" type="line"/>
      <point x="916.0" y="601.0" type="line"/>
      <point x="926.0" y="723.0" type="line"/>
      <point x="1271.0" y="723.0" type="line"/>
      <point x="1281.0" y="742.0" type="line"/>
      <point x="1543.0" y="742.0" type="line"/>
    </contour>
    <contour>
      <point x="1613.0" y="926.0" type="line"/>
      <point x="1361.0" y="926.0" type="line"/>
      <point x="1371.0" y="953.0" type="line"/>
      <point x="911.0" y="953.0" type="line"/>
      <point x="921.0" y="1080.0" type="line"/>
      <point x="1441.0" y="1080.0" type="line"/>
      <point x="1451.0" y="1106.0" type="line"/>
      <point x="1691.0" y="1106.0" type="line"/>
    </contour>
    <contour>
      <point x="47.0" y="575.0" type="line"/>
      <point x="48.0" y="742.0" type="line"/>
      <point x="339.0" y="742.0" type="line"/>
      <point x="341.0" y="723.0" type="line"/>
      <point x="926.0" y="723.0" type="line"/>
      <point x="916.0" y="601.0" type="line"/>
      <point x="325.0" y="601.0" type="line"/>
      <point x="329.0" y="575.0" type="line"/>
    </contour>
    <contour>
      <point x="88.0" y="926.0" type="line"/>
      <point x="90.0" y="1106.0" type="line"/>
      <point x="343.0" y="1106.0" type="line"/>
      <point x="345.0" y="1080.0" type="line"/>
      <point x="921.0" y="1080.0" type="line"/>
      <point x="911.0" y="953.0" type="line"/>
      <point x="340.0" y="953.0" type="line"/>
      <point x="339.0" y="926.0" type="line"/>
    </contour>
    <contour>
      <point x="87.0" y="1325.0" type="line"/>
      <point x="100.0" y="1500.0" type="line"/>
      <point x="678.0" y="1500.0" type="line"/>
      <point x="664.0" y="1328.0" type="line"/>
      <point x="611.0" y="1291.0" type="line"/>
      <point x="616.0" y="844.0" type="line"/>
      <point x="627.0" y="484.0" type="line"/>
      <point x="568.0" y="484.0" type="line"/>
      <point x="699.0" y="833.0" type="line"/>
      <point x="812.0" y="1224.0" type="line"/>
      <point x="902.0" y="970.0" type="line"/>
      <point x="765.0" y="695.0" type="line"/>
      <point x="580.0" y="0.0" type="line"/>
      <point x="194.0" y="0.0" type="line"/>
      <point x="168.0" y="736.0" type="line"/>
      <point x="145.0" y="1288.0" type="line"/>
    </contour>
    <contour>
      <point x="707.0" y="1324.0" type="line"/>
      <point x="719.0" y="1500.0" type="line"/>
      <point x="1270.0" y="1500.0" type="line"/>
      <point x="1257.0" y="1328.0" type="line"/>
      <point x="1171.0" y="1288.0" type="line"/>
      <point x="1177.0" y="856.0" type="line"/>
      <point x="1197.0" y="486.0" type="line"/>
      <point x="1146.0" y="483.0" type="line"/>
      <point x="1290.0" y="854.0" type="line"/>
      <point x="1434.0" y="1279.0" type="line"/>
      <point x="1416.0" y="1323.0" type="line"/>
      <point x="1445.0" y="1500.0" type="line"/>
      <point x="1787.0" y="1500.0" type="line"/>
      <point x="1749.0" y="1318.0" type="line"/>
      <point x="1619.0" y="1286.0" type="line"/>
      <point x="1435.0" y="810.0" type="line"/>
      <point x="1158.0" y="0.0" type="line"/>
      <point x="784.0" y="0.0" type="line"/>
      <point x="775.0" y="711.0" type="line"/>
      <point x="751.0" y="1291.0" type="line"/>
    </contour>
  </outline>
</glyph>
<glyph name="trademark" format="2">
  <advance width="1788"/>
  <unicode hex="2122"/>
  <outline>
    <contour>
      <point x="89.0" y="1195.0" type="line"/>
      <point x="155.0" y="1500.0" type="line"/>
      <point x="852.0" y="1500.0" type="line"/>
      <point x="786.0" y="1195.0" type="line"/>
      <point x="661.0" y="1195.0" type="line"/>
      <point x="688.0" y="1359.0" type="line"/>
      <point x="617.0" y="1359.0" type="line"/>
      <point x="588.0" y="1339.0" type="line"/>
      <point x="510.0" y="1031.0" type="line"/>
      <point x="461.0" y="875.0" type="line"/>
      <point x="552.0" y="839.0" type="line"/>
      <point x="528.0" y="700.0" type="line"/>
      <point x="136.0" y="700.0" type="line"/>
      <point x="160.0" y="839.0" type="line"/>
      <point x="268.0" y="875.0" type="line"/>
      <point x="300.0" y="1018.0" type="line"/>
      <point x="364.0" y="1339.0" type="line"/>
      <point x="332.0" y="1359.0" type="line"/>
      <point x="261.0" y="1359.0" type="line"/>
      <point x="214.0" y="1195.0" type="line"/>
    </contour>
    <contour>
      <point x="724.0" y="702.0" type="line"/>
      <point x="752.0" y="835.0" type="line"/>
      <point x="859.0" y="870.0" type="line"/>
      <point x="902.0" y="1056.0" type="line"/>
      <point x="961.0" y="1338.0" type="line"/>
      <point x="871.0" y="1342.0" type="line"/>
      <point x="901.0" y="1500.0" type="line"/>
      <point x="1249.0" y="1500.0" type="line"/>
      <point x="1300.0" y="956.0" type="line"/>
      <point x="1611.0" y="1500.0" type="line"/>
      <point x="1932.0" y="1500.0" type="line"/>
      <point x="1902.0" y="1354.0" type="line"/>
      <point x="1802.0" y="1320.0" type="line"/>
      <point x="1743.0" y="1054.0" type="line"/>
      <point x="1703.0" y="868.0" type="line"/>
      <point x="1807.0" y="833.0" type="line"/>
      <point x="1781.0" y="700.0" type="line"/>
      <point x="1408.0" y="700.0" type="line"/>
      <point x="1434.0" y="833.0" type="line"/>
      <point x="1526.0" y="868.0" type="line"/>
      <point x="1568.0" y="1054.0" type="line"/>
      <point x="1623.0" y="1301.0" type="line"/>
      <point x="1290.0" y="692.0" type="line"/>
      <point x="1156.0" y="692.0" type="line"/>
      <point x="1092.0" y="1305.0" type="line"/>
      <point x="1036.0" y="1056.0" type="line"/>
      <point x="997.0" y="870.0" type="line"/>
      <point x="1080.0" y="835.0" type="line"/>
      <point x="1052.0" y="702.0" type="line"/>
    </contour>
  </outline>
</glyph>
<glyph name="lessequal" format="2">
  <advance width="889"/>
  <unicode hex="2264"/>
  <outline>
    <contour>
      <point x="34.0" y="-10.0" type="line"/>
      <point x="34.0" y="234.0" type="line"/>
      <point x="854.0" y="234.0" type="line"/>
      <point x="854.0" y="-10.0" type="line"/>
    </contour>
    <contour>
      <point x="30.0" y="757.0" type="qcurve"/>
      <point x="30.0" y="757.0"/>
      <point x="685.0" y="1144.0"/>
      <point x="776.0" y="1199.0" type="qcurve" smooth="yes"/>
      <point x="888.0" y="1267.0"/>
      <point x="1025.0" y="1072.0"/>
      <point x="926.0" y="998.0" type="qcurve" smooth="yes"/>
      <point x="785.0" y="893.0"/>
      <point x="568.0" y="760.0"/>
      <point x="554.0" y="744.0" type="qcurve"/>
      <point x="557.0" y="716.0"/>
      <point x="716.0" y="565.0"/>
      <point x="795.0" y="469.0" type="qcurve"/>
      <point x="856.0" y="396.0"/>
      <point x="677.0" y="248.0"/>
      <point x="612.0" y="304.0" type="qcurve" smooth="yes"/>
      <point x="550.0" y="359.0"/>
      <point x="30.0" y="757.0"/>
    </contour>
  </outline>
</glyph>
<glyph name="fi" format="2">
  <advance width="1613"/>
  <unicode hex="FB01"/>
  <outline>
    <contour>
      <point x="81.0" y="-37.0" type="qcurve" smooth="yes"/>
      <point x="226.0" y="905.0" type="line"/>
      <point x="229.0" y="942.0" type="line"/>
      <point x="268.0" y="1194.0" type="line" smooth="yes"/>
      <point x="290.0" y="1366.0"/>
      <point x="551.0" y="1582.0"/>
      <point x="810.0" y="1582.0" type="qcurve" smooth="yes"/>
      <point x="984.0" y="1582.0"/>
      <point x="1194.0" y="1469.0"/>
      <point x="1197.0" y="1406.0" type="qcurve" smooth="yes"/>
      <point x="1199.0" y="1341.0"/>
      <point x="1125.0" y="1226.0"/>
      <point x="1066.0" y="1226.0" type="qcurve" smooth="yes"/>
      <point x="1051.0" y="1226.0"/>
      <point x="1035.0" y="1231.0"/>
      <point x="1019.0" y="1256.0" type="qcurve" smooth="yes"/>
      <point x="1011.0" y="1285.0"/>
      <point x="963.0" y="1362.0"/>
      <point x="876.0" y="1362.0" type="qcurve" smooth="yes"/>
      <point x="799.0" y="1362.0"/>
      <point x="792.0" y="1255.0"/>
      <point x="783.0" y="1196.0" type="qcurve" smooth="yes"/>
      <point x="739.0" y="936.0" type="line"/>
      <point x="753.0" y="913.0" type="line"/>
      <point x="587.0" y="-25.0" type="line" smooth="yes"/>
      <point x="552.0" y="-239.0"/>
      <point x="185.0" y="-491.0"/>
      <point x="-94.0" y="-491.0" type="qcurve"/>
      <point x="-341.0" y="-433.0" type="line"/>
      <point x="-301.0" y="-302.0" type="line"/>
      <point x="-171.0" y="-312.0" type="line" smooth="yes"/>
      <point x="-37.0" y="-311.0"/>
      <point x="63.0" y="-178.0"/>
    </contour>
    <contour>
      <point x="80.0" y="794.0" type="line"/>
      <point x="79.0" y="958.0" type="line"/>
      <point x="278.0" y="1000.0" type="line"/>
      <point x="990.0" y="1000.0" type="line"/>
      <point x="993.0" y="819.0" type="line"/>
      <point x="670.0" y="795.0" type="line"/>
      <point x="293.0" y="777.0" type="line"/>
    </contour>
    <contour>
      <point x="878.0" y="-18.0" type="line"/>
      <point x="811.0" y="96.0" type="line"/>
      <point x="937.0" y="507.0" type="line"/>
      <point x="998.0" y="795.0" type="line"/>
      <point x="861.0" y="828.0" type="line"/>
      <point x="884.0" y="961.0" type="line"/>
      <point x="1404.0" y="1088.0" type="line"/>
      <point x="1534.0" y="1054.0" type="line"/>
      <point x="1508.0" y="940.0" type="line"/>
      <point x="1496.0" y="846.0" type="line"/>
      <point x="1355.0" y="215.0" type="line"/>
      <point x="1541.0" y="184.0" type="line"/>
      <point x="1532.0" y="29.0" type="line"/>
    </contour>
  </outline>
</glyph>
<glyph name="f_f_l" format="2">
  <advance width="2322"/>
  <unicode hex="FB04"/>
  <outline>
    <contour>
      <point x="-298.0" y="-433.0" type="line" smooth="yes"/>
      <point x="-262.0" y="-302.0" type="line"/>
      <point x="-171.0" y="-312.0" type="line" smooth="yes"/>
      <point x="-37.0" y="-311.0"/>
      <point x="63.0" y="-178.0"/>
      <point x="97.0" y="57.0" type="qcurve" smooth="yes"/>
      <point x="226.0" y="905.0" type="line"/>
      <point x="229.0" y="942.0" type="line"/>
      <point x="275.0" y="1188.0" type="line" smooth="yes"/>
      <point x="308.0" y="1364.0"/>
      <point x="600.0" y="1541.0"/>
      <point x="779.0" y="1541.0" type="qcurve" smooth="yes"/>
      <point x="918.0" y="1541.0"/>
      <point x="1094.0" y="1459.0"/>
      <point x="1094.0" y="1396.0" type="qcurve" smooth="yes"/>
      <point x="1094.0" y="1327.0"/>
      <point x="1012.0" y="1208.0"/>
      <point x="966.0" y="1208.0" type="qcurve" smooth="yes"/>
      <point x="951.0" y="1208.0"/>
      <point x="934.0" y="1213.0"/>
      <point x="916.0" y="1238.0" type="qcurve" smooth="yes"/>
      <point x="905.0" y="1253.0"/>
      <point x="881.0" y="1321.0"/>
      <point x="850.0" y="1321.0" type="qcurve" smooth="yes"/>
      <point x="833.0" y="1321.0"/>
      <point x="814.0" y="1254.0"/>
      <point x="799.0" y="1190.0" type="qcurve" smooth="yes"/>
      <point x="738.0" y="936.0" type="line"/>
      <point x="752.0" y="913.0" type="line"/>
      <point x="605.0" y="67.0" type="line" smooth="yes"/>
      <point x="555.0" y="-239.0"/>
      <point x="185.0" y="-491.0"/>
      <point x="-94.0" y="-491.0" type="qcurve"/>
    </contour>
    <contour>
      <point x="507.0" y="-373.0" type="line" smooth="yes"/>
      <point x="541.0" y="-242.0" type="line"/>
      <point x="641.0" y="-252.0" type="line" smooth="yes"/>
      <point x="775.0" y="-251.0"/>
      <point x="873.0" y="-117.0"/>
      <point x="909.0" y="117.0" type="qcurve" smooth="yes"/>
      <point x="1029.0" y="905.0" type="line"/>
      <point x="1032.0" y="942.0" type="line"/>
      <point x="1105.0" y="1387.0" type="line" smooth="yes"/>
      <point x="1097.0" y="1408.0"/>
      <point x="1358.0" y="1582.0"/>
      <point x="1537.0" y="1582.0" type="qcurve" smooth="yes"/>
      <point x="1676.0" y="1582.0"/>
      <point x="1852.0" y="1506.0"/>
      <point x="1852.0" y="1448.0" type="qcurve" smooth="yes"/>
      <point x="1852.0" y="1385.0"/>
      <point x="1765.0" y="1255.0"/>
      <point x="1719.0" y="1255.0" type="qcurve" smooth="yes"/>
      <point x="1704.0" y="1255.0"/>
      <point x="1683.0" y="1268.0"/>
      <point x="1674.0" y="1288.0" type="qcurve" smooth="yes"/>
      <point x="1654.0" y="1314.0"/>
      <point x="1639.0" y="1380.0"/>
      <point x="1608.0" y="1380.0" type="qcurve" smooth="yes"/>
      <point x="1591.0" y="1380.0"/>
      <point x="1608.0" y="1306.0"/>
      <point x="1621.0" y="1389.0" type="qcurve" smooth="yes"/>
      <point x="1542.0" y="936.0" type="line"/>
      <point x="1556.0" y="913.0" type="line"/>
      <point x="1417.0" y="127.0" type="line" smooth="yes"/>
      <point x="1366.0" y="-182.0"/>
      <point x="997.0" y="-431.0"/>
      <point x="718.0" y="-431.0" type="qcurve"/>
    </contour>
    <contour>
      <point x="80.0" y="794.0" type="line"/>
      <point x="79.0" y="958.0" type="line"/>
      <point x="278.0" y="1000.0" type="line"/>
      <point x="1921.0" y="980.0" type="line"/>
      <point x="1888.0" y="798.0" type="line"/>
      <point x="670.0" y="795.0" type="line"/>
      <point x="293.0" y="777.0" type="line"/>
    </contour>
    <contour>
      <point x="1629.0" y="-36.0" type="line"/>
      <point x="1584.0" y="37.0" type="line"/>
      <point x="1720.0" y="587.0" type="line"/>
      <point x="1883.0" y="1338.0" type="line"/>
      <point x="1666.0" y="1367.0" type="line"/>
      <point x="1706.0" y="1487.0" type="line"/>
      <point x="2311.0" y="1622.0" type="line"/>
      <point x="2394.0" y="1517.0" type="line"/>
      <point x="2200.0" y="568.0" type="line"/>
      <point x="2124.0" y="221.0" type="line"/>
      <point x="2327.0" y="204.0" type="line"/>
      <point x="2316.0" y="41.0" type="line"/>
    </contour>
  </outline>
</glyph>
<glyph name="acutecomb.case" format="2">
  <advance width="1024"/>
  <outline>
    <contour>
      <point x="246.0" y="1685.0" type="line"/>
      <point x="422.0" y="1914.0" type="line" smooth="yes"/>
      <point x="467.0" y="1971.0"/>
      <point x="559.0" y="2043.0"/>
      <point x="607.0" y="2043.0" type="qcurve" smooth="yes"/>
      <point x="656.0" y="2043.0"/>
      <point x="730.0" y="1979.0"/>
      <point x="730.0" y="1937.0" type="qcurve" smooth="yes"/>
      <point x="730.0" y="1895.0"/>
      <point x="696.0" y="1796.0"/>
      <point x="648.0" y="1770.0" type="qcurve" smooth="yes"/>
      <point x="335.0" y="1601.0" type="line"/>
    </contour>
  </outline>
</glyph>
<glyph name="breveinvertedcomb.case" format="2">
  <advance width="1024"/>
  <outline>
    <contour>
      <point x="282.0" y="1644.0" type="qcurve"/>
      <point x="191.0" y="1688.0" type="line"/>
      <point x="231.0" y="1809.0"/>
      <point x="473.0" y="2038.0"/>
      <point x="652.0" y="2038.0" type="qcurve" smooth="yes"/>
      <point x="822.0" y="2038.0"/>
      <point x="993.0" y="1833.0"/>
      <point x="982.0" y="1681.0" type="qcurve"/>
      <point x="869.0" y="1633.0" type="line"/>
      <point x="846.0" y="1721.0"/>
      <point x="716.0" y="1821.0"/>
      <point x="602.0" y="1821.0" type="qcurve" smooth="yes"/>
      <point x="482.0" y="1821.0"/>
      <point x="328.0" y="1719.0"/>
    </contour>
  </outline>
</glyph>
<glyph name="diagonalbarl" format="2">
  <advance width="936"/>
  <outline>
    <contour>
      <point x="521.0" y="749.0" type="line"/>
      <point x="912.0" y="929.0" type="line"/>
      <point x="986.0" y="782.0" type="line"/>
      <point x="582.0" y="627.0" type="line"/>
      <point x="131.0" y="405.0" type="line"/>
      <point x="54.0" y="555.0" type="line"/>
    </contour>
  </outline>
</glyph>
<glyph name="dieresiscomb.case" format="2">
  <advance width="1024"/>
  <outline>
    <contour>
      <point x="259.0" y="1741.0" type="qcurve" smooth="yes"/>
      <point x="259.0" y="1822.0"/>
      <point x="335.0" y="1896.0"/>
      <point x="419.0" y="1896.0" type="qcurve" smooth="yes"/>
      <point x="494.0" y="1896.0"/>
      <point x="578.0" y="1811.0"/>
      <point x="578.0" y="1741.0" type="qcurve" smooth="yes"/>
      <point x="578.0" y="1661.0"/>
      <point x="503.0" y="1585.0"/>
      <point x="419.0" y="1585.0" type="qcurve" smooth="yes"/>
      <point x="343.0" y="1585.0"/>
      <point x="259.0" y="1668.0"/>
    </contour>
    <contour>
      <point x="633.0" y="1741.0" type="qcurve" smooth="yes"/>
      <point x="633.0" y="1822.0"/>
      <point x="710.0" y="1896.0"/>
      <point x="793.0" y="1896.0" type="qcurve" smooth="yes"/>
      <point x="868.0" y="1896.0"/>
      <point x="952.0" y="1811.0"/>
      <point x="952.0" y="1741.0" type="qcurve" smooth="yes"/>
      <point x="952.0" y="1661.0"/>
      <point x="878.0" y="1585.0"/>
      <point x="793.0" y="1585.0" type="qcurve" smooth="yes"/>
      <point x="717.0" y="1585.0"/>
      <point x="633.0" y="1668.0"/>
    </contour>
  </outline>
</glyph>
<glyph name="dollar.rvrn" format="2">
  <advance width="778"/>
  <outline>
    <contour>
      <point x="-170.0" y="242.0" type="qcurve"/>
      <point x="-45.0" y="442.0" type="line"/>
      <point x="22.0" y="367.0"/>
      <point x="196.0" y="230.0"/>
      <point x="309.0" y="230.0" type="qcurve" smooth="yes"/>
      <point x="415.0" y="230.0"/>
      <point x="513.0" y="295.0"/>
      <point x="513.0" y="384.0" type="qcurve" smooth="yes"/>
      <point x="513.0" y="458.0"/>
      <point x="403.0" y="533.0"/>
      <point x="280.0" y="617.0" type="qcurve" smooth="yes"/>
      <point x="165.0" y="698.0"/>
      <point x="0.0" y="947.0"/>
      <point x="10.0" y="1109.0" type="qcurve" smooth="yes"/>
      <point x="21.0" y="1300.0"/>
      <point x="250.0" y="1490.0"/>
      <point x="486.0" y="1490.0" type="qcurve" smooth="yes"/>
      <point x="660.0" y="1490.0"/>
      <point x="840.0" y="1393.0"/>
      <point x="925.0" y="1313.0" type="qcurve"/>
      <point x="799.0" y="1125.0" type="line"/>
      <point x="729.0" y="1197.0"/>
      <point x="552.0" y="1295.0"/>
      <point x="474.0" y="1295.0" type="qcurve" smooth="yes"/>
      <point x="367.0" y="1295.0"/>
      <point x="319.0" y="1256.0"/>
      <point x="317.0" y="1185.0" type="qcurve" smooth="yes"/>
      <point x="315.0" y="1110.0"/>
      <point x="425.0" y="1037.0"/>
      <point x="548.0" y="943.0" type="qcurve" smooth="yes"/>
      <point x="680.0" y="843.0"/>
      <point x="857.0" y="605.0"/>
      <point x="851.0" y="456.0" type="qcurve" smooth="yes"/>
      <point x="843.0" y="239.0"/>
      <point x="535.0" y="21.0"/>
      <point x="341.0" y="21.0" type="qcurve" smooth="yes"/>
      <point x="171.0" y="21.0"/>
      <point x="-90.0" y="152.0"/>
    </contour>
    <contour>
      <point x="181" y="-131" type="line"/>
      <point x="218" y="99" type="line"/>
      <point x="252" y="99" type="line"/>
      <point x="266" y="99" type="line"/>
      <point x="343" y="99" type="line"/>
      <point x="359" y="99" type="line"/>
      <point x="391" y="99" type="line"/>
      <point x="353" y="-109" type="line"/>
    </contour>
    <contour>
      <point x="487" y="1597" type="line"/>
      <point x="657" y="1601" type="line"/>
      <point x="623" y="1389" type="line"/>
      <point x="597" y="1389" type="line"/>
      <point x="571" y="1389" type="line"/>
      <point x="506" y="1389" type="line"/>
      <point x="490" y="1389" type="line"/>
      <point x="451" y="1389" type="line"/>
    </contour>
  </outline>
</glyph>
<glyph name="dollar.rvrn2" format="2">
  <advance width="778"/>
  <outline>
    <contour>
      <point x="-170.0" y="242.0" type="qcurve"/>
      <point x="-45.0" y="442.0" type="line"/>
      <point x="22.0" y="367.0"/>
      <point x="196.0" y="230.0"/>
      <point x="309.0" y="230.0" type="qcurve" smooth="yes"/>
      <point x="415.0" y="230.0"/>
      <point x="513.0" y="295.0"/>
      <point x="513.0" y="384.0" type="qcurve" smooth="yes"/>
      <point x="513.0" y="458.0"/>
      <point x="403.0" y="533.0"/>
      <point x="280.0" y="617.0" type="qcurve" smooth="yes"/>
      <point x="165.0" y="698.0"/>
      <point x="0.0" y="947.0"/>
      <point x="10.0" y="1109.0" type="qcurve" smooth="yes"/>
      <point x="21.0" y="1300.0"/>
      <point x="250.0" y="1490.0"/>
      <point x="486.0" y="1490.0" type="qcurve" smooth="yes"/>
      <point x="660.0" y="1490.0"/>
      <point x="840.0" y="1393.0"/>
      <point x="925.0" y="1313.0" type="qcurve"/>
      <point x="799.0" y="1125.0" type="line"/>
      <point x="729.0" y="1197.0"/>
      <point x="552.0" y="1295.0"/>
      <point x="474.0" y="1295.0" type="qcurve" smooth="yes"/>
      <point x="367.0" y="1295.0"/>
      <point x="319.0" y="1256.0"/>
      <point x="317.0" y="1185.0" type="qcurve" smooth="yes"/>
      <point x="315.0" y="1110.0"/>
      <point x="425.0" y="1037.0"/>
      <point x="548.0" y="943.0" type="qcurve" smooth="yes"/>
      <point x="680.0" y="843.0"/>
      <point x="857.0" y="605.0"/>
      <point x="851.0" y="456.0" type="qcurve" smooth="yes"/>
      <point x="843.0" y="239.0"/>
      <point x="535.0" y="21.0"/>
      <point x="341.0" y="21.0" type="qcurve" smooth="yes"/>
      <point x="171.0" y="21.0"/>
      <point x="-90.0" y="152.0"/>
    </contour>
    <contour>
      <point x="181.0" y="-131.0" type="line"/>
      <point x="218.0" y="99.0" type="line"/>
      <point x="272.0" y="99.0" type="line"/>
      <point x="401.0" y="815.0" type="line"/>
      <point x="461.0" y="775.0" type="line"/>
      <point x="339.0" y="99.0" type="line"/>
      <point x="391.0" y="99.0" type="line"/>
      <point x="353.0" y="-109.0" type="line"/>
    </contour>
    <contour>
      <point x="487.0" y="1597.0" type="line"/>
      <point x="657.0" y="1601.0" type="line"/>
      <point x="623.0" y="1389.0" type="line"/>
      <point x="577.0" y="1389.0" type="line"/>
      <point x="471.0" y="775.0" type="line"/>
      <point x="411.0" y="815.0" type="line"/>
      <point x="510.0" y="1389.0" type="line"/>
      <point x="451.0" y="1389.0" type="line"/>
    </contour>
  </outline>
</glyph>
<glyph name="dotbelowcomb.case" format="2">
  <advance width="1024"/>
  <outline>
    <contour>
      <point x="168.0" y="-300.0" type="qcurve" smooth="yes"/>
      <point x="168.0" y="-215.0"/>
      <point x="246.0" y="-149.0"/>
      <point x="332.0" y="-149.0" type="qcurve" smooth="yes"/>
      <point x="410.0" y="-149.0"/>
      <point x="496.0" y="-237.0"/>
      <point x="496.0" y="-311.0" type="qcurve" smooth="yes"/>
      <point x="496.0" y="-394.0"/>
      <point x="420.0" y="-462.0"/>
      <point x="332.0" y="-462.0" type="qcurve" smooth="yes"/>
      <point x="255.0" y="-462.0"/>
      <point x="168.0" y="-375.0"/>
    </contour>
  </outline>
</glyph>
<glyph name="eight.lf" format="2">
  <advance width="1176"/>
  <outline>
    <contour>
      <point x="-11.0" y="326.0" type="qcurve" smooth="yes"/>
      <point x="-11.0" y="497.0"/>
      <point x="279.0" y="779.0"/>
      <point x="529.0" y="876.0" type="qcurve"/>
      <point x="658.0" y="755.0" type="line"/>
      <point x="527.0" y="681.0"/>
      <point x="340.0" y="485.0"/>
      <point x="340.0" y="345.0" type="qcurve" smooth="yes"/>
      <point x="340.0" y="255.0"/>
      <point x="400.0" y="164.0"/>
      <point x="514.0" y="164.0" type="qcurve" smooth="yes"/>
      <point x="631.0" y="164.0"/>
      <point x="710.0" y="260.0"/>
      <point x="712.0" y="379.0" type="qcurve" smooth="yes"/>
      <point x="714.0" y="453.0"/>
      <point x="529.0" y="641.0"/>
      <point x="457.0" y="685.0" type="qcurve" smooth="yes"/>
      <point x="342.0" y="757.0"/>
      <point x="214.0" y="974.0"/>
      <point x="214.0" y="1120.0" type="qcurve" smooth="yes"/>
      <point x="214.0" y="1290.0"/>
      <point x="439.0" y="1543.0"/>
      <point x="762.0" y="1543.0" type="qcurve" smooth="yes"/>
      <point x="994.0" y="1543.0"/>
      <point x="1191.0" y="1328.0"/>
      <point x="1181.0" y="1175.0" type="qcurve" smooth="yes"/>
      <point x="1171.0" y="1020.0"/>
      <point x="942.0" y="863.0"/>
      <point x="733.0" y="779.0" type="qcurve"/>
      <point x="596.0" y="902.0" type="line"/>
      <point x="719.0" y="970.0"/>
      <point x="888.0" y="1088.0"/>
      <point x="891.0" y="1170.0" type="qcurve" smooth="yes"/>
      <point x="894.0" y="1238.0"/>
      <point x="826.0" y="1347.0"/>
      <point x="739.0" y="1347.0" type="qcurve" smooth="yes"/>
      <point x="675.0" y="1347.0"/>
      <point x="617.0" y="1274.0"/>
      <point x="617.0" y="1192.0" type="qcurve" smooth="yes"/>
      <point x="617.0" y="1106.0"/>
      <point x="759.0" y="992.0"/>
      <point x="855.0" y="919.0" type="qcurve" smooth="yes"/>
      <point x="1066.0" y="770.0"/>
      <point x="1118.0" y="588.0"/>
      <point x="1118.0" y="431.0" type="qcurve" smooth="yes"/>
      <point x="1118.0" y="201.0"/>
      <point x="800.0" y="-24.0"/>
      <point x="471.0" y="-24.0" type="qcurve" smooth="yes"/>
      <point x="243.0" y="-24.0"/>
      <point x="-11.0" y="168.0"/>
    </contour>
  </outline>
</glyph>
<glyph name="five.lf" format="2">
  <advance width="1212"/>
  <outline>
    <contour>
      <point x="13.0" y="225.0" type="qcurve" smooth="yes"/>
      <point x="13.0" y="302.0"/>
      <point x="111.0" y="421.0"/>
      <point x="203.0" y="434.0" type="qcurve"/>
      <point x="233.0" y="432.0" type="line"/>
      <point x="233.0" y="370.0" type="line" smooth="yes"/>
      <point x="233.0" y="250.0"/>
      <point x="310.0" y="161.0"/>
      <point x="380.0" y="161.0" type="qcurve" smooth="yes"/>
      <point x="483.0" y="161.0"/>
      <point x="629.0" y="366.0"/>
      <point x="640.0" y="550.0" type="qcurve" smooth="yes"/>
      <point x="650.0" y="738.0"/>
      <point x="456.0" y="787.0"/>
      <point x="301.0" y="729.0" type="qcurve" smooth="yes"/>
      <point x="266.0" y="712.0" type="line"/>
      <point x="184.0" y="849.0" type="line"/>
      <point x="339.0" y="1433.0" type="line"/>
      <point x="421.0" y="1500.0" type="line"/>
      <point x="1166.0" y="1500.0" type="line"/>
      <point x="1092.0" y="1201.0" type="line"/>
      <point x="496.0" y="1201.0" type="line"/>
      <point x="486.0" y="1190.0" type="line"/>
      <point x="441.0" y="1021.0"/>
      <point x="414.0" y="966.0"/>
      <point x="392.0" y="931.0" type="qcurve"/>
      <point x="603.0" y="979.0" type="line"/>
      <point x="834.0" y="1001.0"/>
      <point x="1127.0" y="794.0"/>
      <point x="1117.0" y="597.0" type="qcurve" smooth="yes"/>
      <point x="1104.0" y="337.0"/>
      <point x="702.0" y="-24.0"/>
      <point x="397.0" y="-24.0" type="qcurve" smooth="yes"/>
      <point x="158.0" y="-24.0"/>
      <point x="13.0" y="105.0"/>
    </contour>
  </outline>
</glyph>
<glyph name="five.tab" format="2">
  <advance width="1283"/>
  <outline>
    <contour>
      <point x="61.0" y="225.0" type="qcurve" smooth="yes"/>
      <point x="61.0" y="302.0"/>
      <point x="178.0" y="423.0"/>
      <point x="251.0" y="432.0" type="qcurve"/>
      <point x="281.0" y="432.0" type="line"/>
      <point x="281.0" y="370.0" type="line" smooth="yes"/>
      <point x="281.0" y="232.0"/>
      <point x="356.0" y="163.0"/>
      <point x="428.0" y="161.0" type="qcurve" smooth="yes"/>
      <point x="531.0" y="163.0"/>
      <point x="687.0" y="366.0"/>
      <point x="698.0" y="550.0" type="qcurve" smooth="yes"/>
      <point x="708.0" y="738.0"/>
      <point x="504.0" y="787.0"/>
      <point x="349.0" y="729.0" type="qcurve" smooth="yes"/>
      <point x="314.0" y="712.0" type="line"/>
      <point x="232.0" y="849.0" type="line"/>
      <point x="387.0" y="1433.0" type="line"/>
      <point x="469.0" y="1500.0" type="line"/>
      <point x="1214.0" y="1500.0" type="line"/>
      <point x="1140.0" y="1201.0" type="line"/>
      <point x="544.0" y="1201.0" type="line"/>
      <point x="534.0" y="1190.0" type="line"/>
      <point x="489.0" y="1021.0"/>
      <point x="462.0" y="966.0"/>
      <point x="440.0" y="931.0" type="qcurve"/>
      <point x="651.0" y="979.0" type="line"/>
      <point x="882.0" y="1001.0"/>
      <point x="1175.0" y="794.0"/>
      <point x="1165.0" y="597.0" type="qcurve" smooth="yes"/>
      <point x="1152.0" y="337.0"/>
      <point x="750.0" y="-24.0"/>
      <point x="445.0" y="-24.0" type="qcurve" smooth="yes"/>
      <point x="206.0" y="-24.0"/>
      <point x="61.0" y="105.0"/>
    </contour>
  </outline>
</glyph>
<glyph name="gravecomb.case" format="2">
  <advance width="1024"/>
  <outline>
    <contour>
      <point x="452.0" y="1779.0" type="qcurve" smooth="yes"/>
      <point x="753.0" y="1601.0" type="line"/>
      <point x="842.0" y="1687.0" type="line"/>
      <point x="673.0" y="1899.0" type="line" smooth="yes"/>
      <point x="623.0" y="1967.0"/>
      <point x="549.0" y="2039.0"/>
      <point x="495.0" y="2039.0" type="qcurve" smooth="yes"/>
      <point x="446.0" y="2039.0"/>
      <point x="366.0" y="1971.0"/>
      <point x="366.0" y="1929.0" type="qcurve" smooth="yes"/>
      <point x="366.0" y="1887.0"/>
      <point x="398.0" y="1811.0"/>
    </contour>
  </outline>
</glyph>
<glyph name="gravecombstack.case" format="2">
  <advance width="1024"/>
  <outline>
    <contour>
      <point x="363.0" y="2012.0" type="qcurve" smooth="yes"/>
      <point x="374.0" y="2041.0"/>
      <point x="462.0" y="2112.0"/>
      <point x="523.0" y="2101.0" type="qcurve" smooth="yes"/>
      <point x="570.0" y="2091.0"/>
      <point x="642.0" y="2003.0"/>
      <point x="657.0" y="1984.0" type="qcurve" smooth="yes"/>
      <point x="819.0" y="1740.0" type="line"/>
      <point x="738.0" y="1657.0" type="line"/>
      <point x="430.0" y="1847.0" type="line" smooth="yes"/>
      <point x="375.0" y="1882.0"/>
      <point x="354.0" y="1957.0"/>
    </contour>
  </outline>
</glyph>
<glyph name="hookabovecombstack.case" format="2">
  <advance width="1024"/>
  <outline>
    <contour>
      <point x="463.0" y="1663.0" type="line"/>
      <point x="502.0" y="1847.0" type="line"/>
      <point x="593.0" y="1880.0" type="line"/>
      <point x="615.0" y="1874.0"/>
      <point x="667.0" y="1866.0"/>
      <point x="686.0" y="1866.0" type="qcurve" smooth="yes"/>
      <point x="736.0" y="1866.0"/>
      <point x="819.0" y="1920.0"/>
      <point x="820.0" y="1971.0" type="qcurve" smooth="yes"/>
      <point x="820.0" y="2001.0"/>
      <point x="762.0" y="2023.0"/>
      <point x="703.0" y="2023.0" type="qcurve" smooth="yes"/>
      <point x="667.0" y="2023.0"/>
      <point x="579.0" y="1997.0"/>
      <point x="522.0" y="1977.0" type="qcurve"/>
      <point x="503.0" y="2116.0" type="line"/>
      <point x="563.0" y="2142.0"/>
      <point x="722.0" y="2181.0"/>
      <point x="763.0" y="2181.0" type="qcurve" smooth="yes"/>
      <point x="927.0" y="2181.0"/>
      <point x="1052.0" y="2079.0"/>
      <point x="1062.0" y="2024.0" type="qcurve" smooth="yes"/>
      <point x="1069.0" y="1874.0"/>
      <point x="900.0" y="1737.0"/>
      <point x="753.0" y="1737.0" type="qcurve" smooth="yes"/>
      <point x="711.0" y="1737.0"/>
      <point x="661.0" y="1742.0"/>
      <point x="641.0" y="1746.0" type="qcurve"/>
      <point x="622.0" y="1663.0" type="line"/>
    </contour>
  </outline>
</glyph>
<glyph name="one.lf" format="2">
  <advance width="941"/>
  <outline>
    <contour>
      <point x="117.0" y="45.0" type="line"/>
      <point x="141.0" y="107.0"/>
      <point x="176.0" y="215.0"/>
      <point x="200.0" y="322.0" type="qcurve" smooth="yes"/>
      <point x="369.0" y="1015.0" type="line"/>
      <point x="404.0" y="1166.0" type="line"/>
      <point x="132.0" y="1056.0" type="line"/>
      <point x="67.0" y="1267.0" type="line"/>
      <point x="765.0" y="1555.0" type="line"/>
      <point x="943.0" y="1450.0" type="line"/>
      <point x="924.0" y="1403.0"/>
      <point x="898.0" y="1267.0"/>
      <point x="893.0" y="1244.0" type="qcurve" smooth="yes"/>
      <point x="774.0" y="720.0" type="line"/>
      <point x="688.0" y="151.0" type="line"/>
      <point x="309.0" y="-33.0" type="line"/>
    </contour>
  </outline>
</glyph>
<glyph name="seven.lc" format="2">
  <advance width="1049"/>
  <outline>
    <contour>
      <point x="-12.0" y="548.0" type="line"/>
      <point x="169.0" y="1001.0" type="line"/>
      <point x="1078.0" y="1001.0" type="line"/>
      <point x="1118.0" y="885.0" type="line"/>
      <point x="800.0" y="407.0"/>
      <point x="590.0" y="-102.0"/>
      <point x="514.0" y="-316.0" type="qcurve"/>
      <point x="137.0" y="-403.0" type="line"/>
      <point x="105.0" y="-335.0" type="line"/>
      <point x="199.0" y="-89.0"/>
      <point x="459.0" y="341.0"/>
      <point x="714.0" y="661.0" type="qcurve"/>
      <point x="705.0" y="680.0" type="line"/>
      <point x="248.0" y="680.0" type="line"/>
      <point x="180.0" y="548.0" type="line"/>
    </contour>
  </outline>
</glyph>
<glyph name="six.lf" format="2">
  <advance width="1151"/>
  <outline>
    <contour>
      <point x="36.0" y="464.0" type="qcurve" smooth="yes"/>
      <point x="79.0" y="967.0"/>
      <point x="816.0" y="1533.0"/>
      <point x="1226.0" y="1559.0" type="qcurve"/>
      <point x="1254.0" y="1392.0" type="line"/>
      <point x="934.0" y="1316.0"/>
      <point x="595.0" y="785.0"/>
      <point x="541.0" y="440.0" type="qcurve" smooth="yes"/>
      <point x="517.0" y="269.0"/>
      <point x="547.0" y="151.0"/>
      <point x="512.0" y="151.0" type="qcurve" smooth="yes"/>
      <point x="567.0" y="151.0"/>
      <point x="620.0" y="348.0"/>
      <point x="662.0" y="447.0" type="qcurve" smooth="yes"/>
      <point x="689.0" y="602.0"/>
      <point x="681.0" y="694.0"/>
      <point x="665.0" y="694.0" type="qcurve" smooth="yes"/>
      <point x="644.0" y="694.0"/>
      <point x="608.0" y="671.0"/>
      <point x="592.0" y="654.0" type="qcurve"/>
      <point x="574.0" y="802.0" type="line"/>
      <point x="608.0" y="840.0"/>
      <point x="737.0" y="886.0"/>
      <point x="816.0" y="886.0" type="qcurve" smooth="yes"/>
      <point x="978.0" y="886.0"/>
      <point x="1140.0" y="688.0"/>
      <point x="1119.0" y="499.0" type="qcurve" smooth="yes"/>
      <point x="1091.0" y="244.0"/>
      <point x="759.0" y="-18.0"/>
      <point x="514.0" y="-18.0" type="qcurve" smooth="yes"/>
      <point x="356.0" y="-18.0"/>
      <point x="9.0" y="193.0"/>
    </contour>
  </outline>
</glyph>
<glyph name="two.lf" format="2">
  <advance width="1093"/>
  <outline>
    <contour>
      <point x="-37.0" y="12.0" type="qcurve"/>
      <point x="-107.0" y="138.0" type="line"/>
      <point x="31.0" y="244.0" type="line" smooth="yes"/>
      <point x="231.0" y="370.0"/>
      <point x="619.0" y="879.0"/>
      <point x="639.0" y="1064.0" type="qcurve" smooth="yes"/>
      <point x="649.0" y="1154.0"/>
      <point x="584.0" y="1261.0"/>
      <point x="472.0" y="1261.0" type="qcurve" smooth="yes"/>
      <point x="395.0" y="1261.0"/>
      <point x="284.0" y="1180.0"/>
      <point x="237.0" y="1089.0" type="qcurve"/>
      <point x="121.0" y="1223.0" type="line"/>
      <point x="216.0" y="1403.0"/>
      <point x="455.0" y="1510.0"/>
      <point x="626.0" y="1510.0" type="qcurve" smooth="yes"/>
      <point x="868.0" y="1510.0"/>
      <point x="1085.0" y="1305.0"/>
      <point x="1085.0" y="1151.0" type="qcurve" smooth="yes"/>
      <point x="1085.0" y="809.0"/>
      <point x="424.0" y="235.0"/>
      <point x="470.0" y="335.0" type="qcurve"/>
      <point x="470.0" y="332.0" type="line"/>
      <point x="509.0" y="345.0"/>
      <point x="568.0" y="357.0"/>
      <point x="607.0" y="370.0" type="qcurve"/>
      <point x="732.0" y="347.0"/>
      <point x="714.7080000000001" y="352.726"/>
      <point x="807.0" y="337.0" type="qcurve"/>
      <point x="908.0" y="477.0" type="line"/>
      <point x="1079.0" y="450.0" type="line"/>
      <point x="900.0" y="-20.0" type="line"/>
      <point x="790.0" y="13.0"/>
      <point x="586.0" y="50.0"/>
      <point x="445.0" y="54.0" type="qcurve" smooth="yes"/>
      <point x="351.0" y="57.0"/>
      <point x="43.0" y="29.0"/>
    </contour>
  </outline>
</glyph>
<glyph name="two.tab" format="2">
  <advance width="1283"/>
  <outline>
    <contour>
      <point x="27.0" y="12.0" type="qcurve"/>
      <point x="-43.0" y="138.0" type="line"/>
      <point x="95.0" y="244.0" type="line" smooth="yes"/>
      <point x="199.0" y="291.0"/>
      <point x="673.0" y="865.0"/>
      <point x="673.0" y="1064.0" type="qcurve" smooth="yes"/>
      <point x="673.0" y="1154.0"/>
      <point x="618.0" y="1261.0"/>
      <point x="506.0" y="1261.0" type="qcurve" smooth="yes"/>
      <point x="439.0" y="1261.0"/>
      <point x="348.0" y="1175.0"/>
      <point x="301.0" y="1089.0" type="qcurve"/>
      <point x="185.0" y="1223.0" type="line"/>
      <point x="280.0" y="1393.0"/>
      <point x="489.0" y="1510.0"/>
      <point x="660.0" y="1510.0" type="qcurve" smooth="yes"/>
      <point x="902.0" y="1510.0"/>
      <point x="1119.0" y="1305.0"/>
      <point x="1119.0" y="1151.0" type="qcurve" smooth="yes"/>
      <point x="1119.0" y="877.0"/>
      <point x="906.0" y="589.0"/>
      <point x="534.0" y="335.0" type="qcurve"/>
      <point x="534.0" y="332.0" type="line"/>
      <point x="573.0" y="345.0"/>
      <point x="632.0" y="357.0"/>
      <point x="671.0" y="370.0" type="qcurve"/>
      <point x="724.0" y="363.0"/>
      <point x="749.0" y="352.0"/>
      <point x="841.0" y="337.0" type="qcurve"/>
      <point x="942.0" y="477.0" type="line"/>
      <point x="1113.0" y="450.0" type="line"/>
      <point x="934.0" y="-20.0" type="line"/>
      <point x="827.0" y="12.0"/>
      <point x="649.0" y="49.0"/>
      <point x="518.0" y="55.0" type="qcurve" smooth="yes"/>
      <point x="424.0" y="59.0"/>
      <point x="113.0" y="30.0"/>
    </contour>
  </outline>
</glyph>
<glyph name="zero.tab" format="2">
  <advance width="1283"/>
  <outline>
    <contour>
      <point x="106.0" y="877.0" type="qcurve" smooth="yes"/>
      <point x="182.0" y="1204.0"/>
      <point x="568.0" y="1537.0"/>
      <point x="821.0" y="1513.0" type="qcurve" smooth="yes"/>
      <point x="1110.0" y="1488.0"/>
      <point x="1283.0" y="1030.0"/>
      <point x="1213.0" y="693.0" type="qcurve" smooth="yes"/>
      <point x="1141.0" y="359.0"/>
      <point x="735.0" y="-32.0"/>
      <point x="475.0" y="-10.0" type="qcurve" smooth="yes"/>
      <point x="189.0" y="13.0"/>
      <point x="16.0" y="487.0"/>
    </contour>
    <contour>
      <point x="656.0" y="838.0" type="qcurve" smooth="yes"/>
      <point x="599.0" y="587.0"/>
      <point x="458.0" y="186.0"/>
      <point x="504.0" y="168.0" type="qcurve" smooth="yes"/>
      <point x="565.0" y="148.0"/>
      <point x="594.0" y="408.0"/>
      <point x="661.0" y="721.0" type="qcurve" smooth="yes"/>
      <point x="723.0" y="1007.0"/>
      <point x="845.0" y="1312.0"/>
      <point x="793.0" y="1329.0" type="qcurve" smooth="yes"/>
      <point x="749.0" y="1347.0"/>
      <point x="724.0" y="1146.0"/>
    </contour>
  </outline>
</glyph>
